M48
; DRILL file KiCad 10.0.5 date 2026-10-06T16:37:05
; FORMAT={-:-/ absolute / metric / decimal}
; #@! TF.CreationDate,2026-10-06T16:37:05+08:00
; #@! TF.GenerationSoftware,Kicad,Pcbnew,10.0.5
; #@! TF.FileFunction,Plated,1,2,PTH
FMAT,2
METRIC
; #@! TA.AperFunction,Plated,PTH,ComponentDrill
T1C0.200
; #@! TA.AperFunction,Plated,PTH,ViaDrill
T2C0.300
; #@! TA.AperFunction,Plated,PTH,ViaDrill
T3C0.350
; #@! TA.AperFunction,Plated,PTH,ComponentDrill
T4C0.900
; #@! TA.AperFunction,Plated,PTH,ComponentDrill
T5C1.000
; #@! TA.AperFunction,Plated,PTH,ComponentDrill
T6C1.010
; #@! TA.AperFunction,Plated,PTH,ComponentDrill
T7C1.300
%
G90
G05
T1
X164.0Y-129.45
X164.0Y-130.55
X226.512Y-112.11
X226.512Y-113.51
X227.212Y-111.41
X227.212Y-112.81
X227.212Y-114.21
X227.912Y-112.11
X227.912Y-113.51
X228.612Y-111.41
X228.612Y-112.81
X228.612Y-114.21
X229.312Y-112.11
X229.312Y-113.51
T2
X126.632Y-154.15
X128.006Y-119.439
X128.902Y-115.821
X129.375Y-116.483
X130.34Y-117.28
X130.566Y-115.761
X131.547Y-119.365
X131.856Y-127.54
X132.422Y-122.709
X133.186Y-120.002
X135.263Y-125.389
X139.275Y-128.891
X142.395Y-140.128
X142.936Y-154.15
X144.05Y-133.508
X145.705Y-140.128
X147.916Y-131.259
X152.787Y-130.455
X152.93Y-148.821
X154.217Y-140.247
X159.755Y-122.425
X159.768Y-118.103
X159.783Y-143.729
X161.651Y-164.0
X162.386Y-122.119
X162.512Y-127.697
X163.492Y-146.557
X163.935Y-121.911
X164.479Y-145.942
X167.447Y-124.544
X168.996Y-125.395
X169.326Y-122.163
X169.739Y-123.424
X170.283Y-124.825
X172.8Y-155.2
X172.8Y-156.0
X172.8Y-156.8
X173.506Y-125.408
X173.6Y-155.2
X173.6Y-156.0
X173.6Y-156.8
X173.707Y-122.767
X174.4Y-155.2
X174.4Y-156.0
X174.4Y-156.8
X175.2Y-155.2
X175.2Y-156.0
X175.2Y-156.8
X175.8Y-115.2
X175.8Y-116.0
X175.8Y-116.8
X175.989Y-131.119
X176.6Y-115.2
X176.6Y-116.0
X176.6Y-116.8
X177.4Y-115.2
X177.4Y-116.0
X177.4Y-116.8
X178.2Y-115.2
X178.2Y-116.0
X178.2Y-116.8
X179.495Y-140.334
X182.999Y-136.226
X183.8Y-155.2
X183.8Y-156.0
X183.8Y-156.8
X184.367Y-128.364
X184.6Y-155.2
X184.6Y-156.0
X184.6Y-156.8
X185.4Y-155.2
X185.4Y-156.0
X185.4Y-156.8
X186.2Y-155.2
X186.2Y-156.0
X186.2Y-156.8
X196.084Y-133.544
X197.184Y-140.663
X200.086Y-139.978
X212.226Y-108.987
X213.01Y-111.225
X213.504Y-119.102
X213.622Y-115.1
X215.795Y-131.963
X218.428Y-128.253
X220.825Y-129.988
X221.885Y-123.902
X222.853Y-125.136
X224.209Y-125.744
X225.994Y-119.752
X226.135Y-117.91
X226.421Y-147.246
X226.782Y-130.9
X228.211Y-142.968
X228.678Y-141.471
X229.494Y-141.825
X230.442Y-111.379
X230.667Y-128.927
X230.749Y-147.175
X231.067Y-108.192
X232.504Y-140.2
X233.597Y-127.803
X239.754Y-112.313
X252.403Y-169.82
X255.175Y-101.992
X258.757Y-172.068
X260.99Y-104.3
X264.414Y-170.463
X290.175Y-129.995
X292.735Y-131.08
X296.508Y-141.522
T3
X114.0Y-112.0
X114.0Y-115.0
X114.0Y-118.0
X114.0Y-121.0
X114.0Y-124.0
X114.0Y-127.0
X114.0Y-130.0
X114.0Y-133.0
X114.0Y-136.0
X114.0Y-139.0
X114.0Y-142.0
X114.0Y-145.0
X114.0Y-148.0
X114.0Y-151.0
X114.0Y-154.0
X114.0Y-157.0
X114.0Y-160.0
X114.0Y-163.0
X117.0Y-112.0
X117.0Y-115.0
X117.0Y-118.0
X117.0Y-121.0
X117.0Y-124.0
X117.0Y-127.0
X117.0Y-130.0
X117.0Y-133.0
X117.0Y-136.0
X117.0Y-139.0
X117.0Y-142.0
X117.0Y-145.0
X117.0Y-148.0
X117.0Y-151.0
X117.0Y-154.0
X117.0Y-157.0
X117.0Y-160.0
X117.0Y-163.0
X120.0Y-112.0
X120.0Y-115.0
X120.0Y-118.0
X120.0Y-121.0
X120.0Y-124.0
X120.0Y-127.0
X120.0Y-130.0
X120.0Y-133.0
X120.0Y-136.0
X120.0Y-139.0
X120.0Y-142.0
X120.0Y-145.0
X120.0Y-148.0
X120.0Y-151.0
X120.0Y-154.0
X120.0Y-157.0
X120.0Y-160.0
X120.0Y-163.0
X123.0Y-112.0
X123.0Y-115.0
X123.0Y-118.0
X123.0Y-124.0
X123.0Y-154.0
X123.0Y-157.0
X123.0Y-160.0
X123.0Y-163.0
X126.0Y-112.0
X126.0Y-115.0
X126.0Y-121.0
X126.0Y-130.0
X126.0Y-142.0
X126.0Y-148.0
X126.0Y-151.0
X126.0Y-157.0
X126.0Y-160.0
X126.0Y-163.0
X129.0Y-106.0
X129.0Y-109.0
X129.0Y-112.0
X129.0Y-139.0
X129.0Y-145.0
X129.0Y-148.0
X129.0Y-151.0
X129.0Y-157.0
X129.0Y-160.0
X129.0Y-163.0
X129.0Y-166.0
X129.0Y-169.0
X132.0Y-103.0
X132.0Y-109.0
X132.0Y-112.0
X132.0Y-139.0
X132.0Y-145.0
X132.0Y-148.0
X132.0Y-151.0
X132.0Y-157.0
X132.0Y-160.0
X132.0Y-163.0
X132.0Y-166.0
X132.0Y-172.0
X135.0Y-103.0
X135.0Y-106.0
X135.0Y-109.0
X135.0Y-112.0
X135.0Y-118.0
X135.0Y-133.0
X135.0Y-136.0
X135.0Y-139.0
X135.0Y-145.0
X135.0Y-148.0
X135.0Y-151.0
X135.0Y-157.0
X135.0Y-160.0
X135.0Y-163.0
X135.0Y-166.0
X135.0Y-169.0
X135.0Y-172.0
X138.0Y-103.0
X138.0Y-106.0
X138.0Y-109.0
X138.0Y-112.0
X138.0Y-118.0
X138.0Y-124.0
X138.0Y-133.0
X138.0Y-136.0
X138.0Y-139.0
X138.0Y-160.0
X138.0Y-163.0
X138.0Y-166.0
X138.0Y-169.0
X138.0Y-172.0
X141.0Y-103.0
X141.0Y-106.0
X141.0Y-109.0
X141.0Y-112.0
X141.0Y-118.0
X141.0Y-130.0
X141.0Y-133.0
X141.0Y-139.0
X141.0Y-160.0
X141.0Y-163.0
X141.0Y-166.0
X141.0Y-169.0
X141.0Y-172.0
X144.0Y-103.0
X144.0Y-106.0
X144.0Y-109.0
X144.0Y-112.0
X144.0Y-118.0
X144.0Y-127.0
X144.0Y-130.0
X144.0Y-139.0
X144.0Y-160.0
X144.0Y-163.0
X144.0Y-166.0
X144.0Y-169.0
X144.0Y-172.0
X147.0Y-103.0
X147.0Y-106.0
X147.0Y-109.0
X147.0Y-112.0
X147.0Y-118.0
X147.0Y-124.0
X147.0Y-127.0
X147.0Y-148.0
X147.0Y-154.0
X147.0Y-160.0
X147.0Y-163.0
X147.0Y-166.0
X147.0Y-169.0
X147.0Y-172.0
X150.0Y-103.0
X150.0Y-106.0
X150.0Y-109.0
X150.0Y-112.0
X150.0Y-118.0
X150.0Y-124.0
X150.0Y-127.0
X150.0Y-133.0
X150.0Y-136.0
X150.0Y-139.0
X150.0Y-169.0
X150.0Y-172.0
X153.0Y-103.0
X153.0Y-106.0
X153.0Y-109.0
X153.0Y-112.0
X153.0Y-118.0
X153.0Y-124.0
X153.0Y-127.0
X153.0Y-133.0
X153.0Y-136.0
X153.0Y-139.0
X153.0Y-151.0
X153.0Y-154.0
X153.0Y-157.0
X153.0Y-160.0
X153.0Y-163.0
X153.0Y-166.0
X153.0Y-169.0
X153.0Y-172.0
X156.0Y-103.0
X156.0Y-106.0
X156.0Y-109.0
X156.0Y-112.0
X156.0Y-148.0
X156.0Y-151.0
X156.0Y-154.0
X156.0Y-157.0
X156.0Y-160.0
X156.0Y-163.0
X156.0Y-169.0
X156.0Y-172.0
X159.0Y-103.0
X159.0Y-106.0
X159.0Y-154.0
X159.0Y-157.0
X159.0Y-160.0
X159.0Y-166.0
X159.0Y-169.0
X159.0Y-172.0
X162.0Y-103.0
X162.0Y-106.0
X162.0Y-124.0
X162.0Y-133.0
X162.0Y-136.0
X162.0Y-139.0
X162.0Y-142.0
X162.0Y-157.0
X162.0Y-160.0
X162.0Y-166.0
X162.0Y-169.0
X162.0Y-172.0
X165.0Y-103.0
X165.0Y-106.0
X165.0Y-124.0
X165.0Y-133.0
X165.0Y-136.0
X165.0Y-139.0
X165.0Y-142.0
X165.0Y-148.0
X165.0Y-160.0
X165.0Y-166.0
X165.0Y-169.0
X165.0Y-172.0
X168.0Y-103.0
X168.0Y-106.0
X168.0Y-109.0
X168.0Y-112.0
X168.0Y-115.0
X168.0Y-127.0
X168.0Y-130.0
X168.0Y-133.0
X168.0Y-136.0
X168.0Y-139.0
X168.0Y-142.0
X168.0Y-148.0
X168.0Y-151.0
X168.0Y-169.0
X168.0Y-172.0
X171.0Y-103.0
X171.0Y-106.0
X171.0Y-109.0
X171.0Y-115.0
X171.0Y-127.0
X171.0Y-133.0
X171.0Y-136.0
X171.0Y-139.0
X171.0Y-145.0
X171.0Y-148.0
X171.0Y-151.0
X171.0Y-169.0
X171.0Y-172.0
X174.0Y-103.0
X174.0Y-106.0
X174.0Y-109.0
X174.0Y-115.0
X174.0Y-133.0
X174.0Y-136.0
X174.0Y-139.0
X174.0Y-145.0
X174.0Y-148.0
X174.0Y-151.0
X174.0Y-166.0
X174.0Y-169.0
X174.0Y-172.0
X177.0Y-103.0
X177.0Y-106.0
X177.0Y-109.0
X177.0Y-112.0
X177.0Y-130.0
X177.0Y-136.0
X177.0Y-139.0
X177.0Y-142.0
X177.0Y-145.0
X177.0Y-148.0
X177.0Y-151.0
X177.0Y-154.0
X177.0Y-157.0
X177.0Y-160.0
X177.0Y-166.0
X177.0Y-169.0
X177.0Y-172.0
X180.0Y-103.0
X180.0Y-106.0
X180.0Y-109.0
X180.0Y-112.0
X180.0Y-115.0
X180.0Y-130.0
X180.0Y-133.0
X180.0Y-136.0
X180.0Y-139.0
X180.0Y-142.0
X180.0Y-145.0
X180.0Y-148.0
X180.0Y-151.0
X180.0Y-154.0
X180.0Y-157.0
X180.0Y-160.0
X180.0Y-166.0
X180.0Y-169.0
X180.0Y-172.0
X183.0Y-103.0
X183.0Y-106.0
X183.0Y-109.0
X183.0Y-112.0
X183.0Y-115.0
X183.0Y-139.0
X183.0Y-142.0
X183.0Y-145.0
X183.0Y-148.0
X183.0Y-151.0
X183.0Y-154.0
X183.0Y-157.0
X183.0Y-160.0
X183.0Y-163.0
X183.0Y-166.0
X183.0Y-169.0
X183.0Y-172.0
X186.0Y-103.0
X186.0Y-106.0
X186.0Y-109.0
X186.0Y-112.0
X186.0Y-115.0
X186.0Y-139.0
X186.0Y-142.0
X186.0Y-145.0
X186.0Y-148.0
X186.0Y-151.0
X186.0Y-154.0
X186.0Y-160.0
X186.0Y-163.0
X186.0Y-166.0
X186.0Y-169.0
X186.0Y-172.0
X187.0Y-131.0
X187.0Y-133.0
X187.0Y-135.0
X189.0Y-103.0
X189.0Y-106.0
X189.0Y-109.0
X189.0Y-112.0
X189.0Y-115.0
X189.0Y-131.0
X189.0Y-133.0
X189.0Y-135.0
X189.0Y-142.0
X189.0Y-145.0
X189.0Y-148.0
X189.0Y-151.0
X189.0Y-154.0
X189.0Y-157.0
X189.0Y-160.0
X189.0Y-163.0
X189.0Y-166.0
X189.0Y-169.0
X189.0Y-172.0
X191.0Y-133.0
X191.0Y-135.0
X192.0Y-103.0
X192.0Y-106.0
X192.0Y-109.0
X192.0Y-112.0
X192.0Y-115.0
X192.0Y-130.0
X192.0Y-145.0
X192.0Y-148.0
X192.0Y-151.0
X192.0Y-154.0
X192.0Y-157.0
X192.0Y-160.0
X192.0Y-163.0
X192.0Y-166.0
X192.0Y-169.0
X192.0Y-172.0
X193.0Y-129.0
X193.0Y-133.0
X193.0Y-135.0
X195.0Y-103.0
X195.0Y-106.0
X195.0Y-109.0
X195.0Y-112.0
X195.0Y-115.0
X195.0Y-130.0
X195.0Y-142.0
X195.0Y-145.0
X195.0Y-151.0
X195.0Y-154.0
X195.0Y-157.0
X195.0Y-160.0
X195.0Y-163.0
X195.0Y-166.0
X195.0Y-169.0
X195.0Y-172.0
X198.0Y-103.0
X198.0Y-106.0
X198.0Y-109.0
X198.0Y-112.0
X198.0Y-115.0
X198.0Y-142.0
X198.0Y-145.0
X198.0Y-148.0
X198.0Y-151.0
X198.0Y-154.0
X198.0Y-157.0
X198.0Y-160.0
X198.0Y-163.0
X198.0Y-166.0
X198.0Y-169.0
X198.0Y-172.0
X201.0Y-100.0
X201.0Y-106.0
X201.0Y-109.0
X201.0Y-112.0
X201.0Y-127.0
X201.0Y-130.0
X201.0Y-133.0
X201.0Y-136.0
X201.0Y-142.0
X201.0Y-145.0
X201.0Y-148.0
X201.0Y-151.0
X201.0Y-154.0
X201.0Y-157.0
X201.0Y-160.0
X201.0Y-163.0
X201.0Y-166.0
X201.0Y-175.0
X204.0Y-100.0
X204.0Y-103.0
X204.0Y-106.0
X204.0Y-109.0
X204.0Y-127.0
X204.0Y-130.0
X204.0Y-133.0
X204.0Y-139.0
X204.0Y-145.0
X204.0Y-148.0
X204.0Y-151.0
X204.0Y-154.0
X204.0Y-157.0
X204.0Y-160.0
X204.0Y-163.0
X204.0Y-166.0
X204.0Y-169.0
X204.0Y-172.0
X204.0Y-175.0
X207.0Y-106.0
X207.0Y-127.0
X207.0Y-130.0
X207.0Y-136.0
X207.0Y-139.0
X207.0Y-142.0
X207.0Y-148.0
X207.0Y-151.0
X207.0Y-154.0
X207.0Y-157.0
X207.0Y-160.0
X207.0Y-163.0
X207.0Y-166.0
X207.0Y-169.0
X207.0Y-172.0
X207.0Y-175.0
X210.0Y-148.0
X210.0Y-151.0
X210.0Y-154.0
X210.0Y-157.0
X210.0Y-160.0
X210.0Y-163.0
X210.0Y-166.0
X210.0Y-169.0
X210.0Y-172.0
X210.0Y-175.0
X213.0Y-130.0
X213.0Y-133.0
X213.0Y-136.0
X213.0Y-139.0
X213.0Y-142.0
X213.0Y-148.0
X213.0Y-151.0
X213.0Y-154.0
X213.0Y-157.0
X213.0Y-160.0
X213.0Y-163.0
X213.0Y-166.0
X213.0Y-169.0
X213.0Y-172.0
X213.0Y-175.0
X216.0Y-148.0
X216.0Y-151.0
X216.0Y-154.0
X216.0Y-157.0
X216.0Y-160.0
X216.0Y-163.0
X216.0Y-166.0
X216.0Y-169.0
X216.0Y-172.0
X216.0Y-175.0
X219.0Y-106.4
X219.0Y-107.6
X219.0Y-108.8
X219.0Y-111.4
X219.0Y-112.8
X219.0Y-114.0
X219.0Y-115.2
X219.0Y-133.0
X219.0Y-136.0
X219.0Y-139.0
X219.0Y-148.0
X219.0Y-151.0
X219.0Y-154.0
X219.0Y-157.0
X219.0Y-160.0
X219.0Y-163.0
X219.0Y-166.0
X219.0Y-169.0
X219.0Y-172.0
X219.0Y-175.0
X222.0Y-112.0
X222.0Y-115.0
X222.0Y-118.0
X222.0Y-133.0
X222.0Y-136.0
X222.0Y-139.0
X222.0Y-145.0
X222.0Y-148.0
X222.0Y-151.0
X222.0Y-154.0
X222.0Y-157.0
X222.0Y-160.0
X222.0Y-163.0
X222.0Y-166.0
X222.0Y-169.0
X222.0Y-172.0
X222.0Y-175.0
X225.0Y-112.0
X225.0Y-115.0
X225.0Y-136.0
X225.0Y-139.0
X225.0Y-145.0
X225.0Y-148.0
X225.0Y-151.0
X225.0Y-154.0
X225.0Y-157.0
X225.0Y-160.0
X225.0Y-163.0
X225.0Y-166.0
X225.0Y-169.0
X225.0Y-172.0
X225.0Y-175.0
X228.0Y-115.0
X228.0Y-151.0
X228.0Y-154.0
X228.0Y-157.0
X228.0Y-160.0
X228.0Y-163.0
X228.0Y-166.0
X228.0Y-169.0
X228.0Y-172.0
X228.0Y-175.0
X231.0Y-106.0
X231.0Y-130.0
X231.0Y-133.0
X231.0Y-136.0
X231.0Y-139.0
X231.0Y-142.0
X231.0Y-151.0
X231.0Y-154.0
X231.0Y-157.0
X231.0Y-160.0
X231.0Y-163.0
X231.0Y-166.0
X231.0Y-169.0
X231.0Y-172.0
X231.0Y-175.0
X234.0Y-106.0
X234.0Y-112.0
X234.0Y-115.0
X234.0Y-130.0
X234.0Y-133.0
X234.0Y-136.0
X234.0Y-145.0
X234.0Y-154.0
X234.0Y-157.0
X234.0Y-160.0
X234.0Y-163.0
X234.0Y-166.0
X234.0Y-169.0
X234.0Y-172.0
X234.0Y-175.0
X237.0Y-127.0
X237.0Y-130.0
X237.0Y-133.0
X237.0Y-142.0
X237.0Y-145.0
X237.0Y-148.0
X237.0Y-157.0
X237.0Y-160.0
X237.0Y-163.0
X237.0Y-166.0
X237.0Y-169.0
X237.0Y-172.0
X237.0Y-175.0
X239.8Y-107.6
X239.8Y-108.8
X239.8Y-110.2
X239.8Y-115.2
X239.8Y-121.6
X240.0Y-124.0
X240.0Y-127.0
X240.0Y-130.0
X240.0Y-145.0
X240.0Y-148.0
X240.0Y-151.0
X240.0Y-160.0
X240.0Y-163.0
X240.0Y-166.0
X240.0Y-169.0
X240.0Y-172.0
X240.0Y-175.0
X243.0Y-106.0
X243.0Y-115.0
X243.0Y-118.0
X243.0Y-121.0
X243.0Y-124.0
X243.0Y-127.0
X243.0Y-130.0
X243.0Y-145.0
X243.0Y-148.0
X243.0Y-151.0
X243.0Y-154.0
X243.0Y-163.0
X243.0Y-166.0
X243.0Y-169.0
X243.0Y-172.0
X243.0Y-175.0
X246.0Y-106.0
X246.0Y-115.0
X246.0Y-118.0
X246.0Y-157.0
X246.0Y-166.0
X246.0Y-169.0
X246.0Y-172.0
X246.0Y-175.0
X249.0Y-106.0
X249.0Y-112.0
X249.0Y-160.0
X249.0Y-169.0
X249.0Y-172.0
X249.0Y-175.0
X252.0Y-109.0
X252.0Y-163.0
X252.0Y-175.0
X255.0Y-109.0
X255.0Y-166.0
X255.0Y-175.0
X258.0Y-103.0
X258.0Y-169.0
X258.0Y-175.0
X261.0Y-169.0
X261.0Y-172.0
X261.0Y-175.0
X264.0Y-169.0
X264.0Y-175.0
X267.0Y-169.0
X267.0Y-172.0
X267.0Y-175.0
X270.0Y-169.0
X270.0Y-175.0
X273.0Y-106.0
X273.0Y-169.0
X273.0Y-172.0
X276.0Y-103.0
X276.0Y-109.0
X276.0Y-166.0
X276.0Y-169.0
X276.0Y-172.0
X279.0Y-106.0
X279.0Y-166.0
X279.0Y-169.0
X282.0Y-106.0
X282.0Y-109.0
X282.0Y-163.0
X282.0Y-166.0
X282.0Y-169.0
X285.0Y-112.0
X285.0Y-160.0
X285.0Y-163.0
X288.0Y-115.0
X288.0Y-121.0
X288.0Y-124.0
X288.0Y-127.0
X288.0Y-130.0
X288.0Y-145.0
X288.0Y-148.0
X288.0Y-151.0
X288.0Y-154.0
X288.0Y-157.0
X288.0Y-160.0
X291.0Y-115.0
X291.0Y-118.0
X291.0Y-145.0
X291.0Y-148.0
X291.0Y-151.0
X291.0Y-154.0
X291.0Y-157.0
X291.0Y-160.0
X294.0Y-121.0
X294.0Y-130.0
X294.0Y-139.0
X294.0Y-145.0
X294.0Y-154.0
T4
X237.65Y-136.135
X237.65Y-138.675
X263.531Y-172.12
X264.801Y-101.1
X266.071Y-172.12
X267.341Y-101.1
X268.611Y-172.12
X295.28Y-133.308
X295.28Y-135.848
T5
X122.0Y-125.0
X122.0Y-127.54
X122.0Y-130.08
X122.0Y-132.62
X122.0Y-135.16
X122.0Y-137.7
X122.0Y-140.24
X122.0Y-142.78
X122.0Y-145.32
X122.0Y-147.86
X124.54Y-125.0
X124.54Y-127.54
X124.54Y-130.08
X124.54Y-132.62
X124.54Y-135.16
X124.54Y-137.7
X124.54Y-140.24
X124.54Y-142.78
X124.54Y-145.32
X124.54Y-147.86
X191.0Y-150.0
X193.54Y-150.0
X196.08Y-150.0
X205.0Y-145.0
X207.54Y-145.0
X210.08Y-145.0
X212.62Y-145.0
X215.16Y-145.0
X217.7Y-145.0
T6
X145.0Y-150.0
X145.0Y-157.0
X150.1Y-151.2
X150.1Y-158.2
T7
X145.0Y-167.0
X150.08Y-167.0
X155.16Y-167.0
M30
