%TF.GenerationSoftware,KiCad,Pcbnew,10.0.5*%
%TF.CreationDate,2026-10-06T16:37:07+08:00*%
%TF.ProjectId,Rdrop-GPT6,5264726f-702d-4475-9054-362e6b696361,rev?*%
%TF.SameCoordinates,Original*%
%TF.FileFunction,Soldermask,Top*%
%TF.FilePolarity,Negative*%
%FSLAX46Y46*%
G04 Gerber Fmt 4.6, Leading zero omitted, Abs format (unit mm)*
G04 Created by KiCad (PCBNEW 10.0.5) date 2026-10-06 16:37:07*
%MOMM*%
%LPD*%
G01*
G04 APERTURE LIST*
G04 Aperture macros list*
%AMRoundRect*
0 Rectangle with rounded corners*
0 $1 Rounding radius*
0 $2 $3 $4 $5 $6 $7 $8 $9 X,Y pos of 4 corners*
0 Add a 4 corners polygon primitive as box body*
4,1,4,$2,$3,$4,$5,$6,$7,$8,$9,$2,$3,0*
0 Add four circle primitives for the rounded corners*
1,1,$1+$1,$2,$3*
1,1,$1+$1,$4,$5*
1,1,$1+$1,$6,$7*
1,1,$1+$1,$8,$9*
0 Add four rect primitives between the rounded corners*
20,1,$1+$1,$2,$3,$4,$5,0*
20,1,$1+$1,$4,$5,$6,$7,0*
20,1,$1+$1,$6,$7,$8,$9,0*
20,1,$1+$1,$8,$9,$2,$3,0*%
%AMFreePoly0*
4,1,120,-2.407097,3.659953,-2.050973,3.589116,-1.703508,3.483713,-1.368046,3.344760,-1.047820,3.173596,-0.745913,2.971868,-0.465232,2.741519,-0.208481,2.484768,0.021868,2.204087,0.223596,1.902180,0.394760,1.581954,0.533713,1.246492,0.639116,0.899027,0.709953,0.542903,0.745543,0.181550,0.745543,0.077766,0.746389,0.073513,0.746389,-0.073513,0.745543,-0.077766,0.745543,-0.181550,
0.709953,-0.542903,0.639116,-0.899027,0.533713,-1.246492,0.394760,-1.581954,0.223596,-1.902180,0.021868,-2.204087,-0.208481,-2.484768,-0.465232,-2.741519,-0.745913,-2.971868,-1.047820,-3.173596,-1.368046,-3.344760,-1.703508,-3.483713,-2.050973,-3.589116,-2.407097,-3.659953,-2.768450,-3.695543,-3.131550,-3.695543,-3.492903,-3.659953,-3.849027,-3.589116,-4.196492,-3.483713,-4.531954,-3.344760,
-4.852180,-3.173596,-5.154087,-2.971868,-5.434768,-2.741519,-5.691519,-2.484768,-5.921868,-2.204087,-6.123596,-1.902180,-6.294760,-1.581954,-6.433713,-1.246492,-6.539116,-0.899027,-6.609953,-0.542903,-6.645543,-0.181550,-6.645543,0.144196,-5.150000,0.144196,-5.150000,-0.144196,-5.112357,-0.430120,-5.037716,-0.708684,-4.927353,-0.975123,-4.783158,-1.224877,-4.607596,-1.453673,-4.403673,-1.657596,
-4.174877,-1.833158,-3.925123,-1.977353,-3.658684,-2.087716,-3.380120,-2.162357,-3.094196,-2.200000,-2.805804,-2.200000,-2.519880,-2.162357,-2.241316,-2.087716,-1.974877,-1.977353,-1.725123,-1.833158,-1.496327,-1.657596,-1.292404,-1.453673,-1.116842,-1.224877,-0.972647,-0.975123,-0.862284,-0.708684,-0.787643,-0.430120,-0.750000,-0.144196,-0.750000,0.144196,-0.787643,0.430120,-0.862284,0.708684,
-0.972647,0.975123,-1.116842,1.224877,-1.292404,1.453673,-1.496327,1.657596,-1.725123,1.833158,-1.974877,1.977353,-2.241316,2.087716,-2.519880,2.162357,-2.805804,2.200000,-3.094196,2.200000,-3.380120,2.162357,-3.658684,2.087716,-3.925123,1.977353,-4.174877,1.833158,-4.403673,1.657596,-4.607596,1.453673,-4.783158,1.224877,-4.927353,0.975123,-5.037716,0.708684,-5.112357,0.430120,
-5.150000,0.144196,-6.645543,0.144196,-6.645543,0.181550,-6.609953,0.542903,-6.539116,0.899027,-6.433713,1.246492,-6.294760,1.581954,-6.123596,1.902180,-5.921868,2.204087,-5.691519,2.484768,-5.434768,2.741519,-5.154087,2.971868,-4.852180,3.173596,-4.531954,3.344760,-4.196492,3.483713,-3.849027,3.589116,-3.492903,3.659953,-3.131550,3.695543,-2.768450,3.695543,-2.407097,3.659953,
-2.407097,3.659953,$1*%
G04 Aperture macros list end*
%ADD10R,1.500000X0.900000*%
%ADD11R,0.900000X1.500000*%
%ADD12R,0.900000X0.900000*%
%ADD13C,0.600000*%
%ADD14RoundRect,0.200000X-0.200000X-0.275000X0.200000X-0.275000X0.200000X0.275000X-0.200000X0.275000X0*%
%ADD15RoundRect,0.225000X0.250000X-0.225000X0.250000X0.225000X-0.250000X0.225000X-0.250000X-0.225000X0*%
%ADD16R,1.700000X1.700000*%
%ADD17C,1.700000*%
%ADD18RoundRect,0.150000X-0.587500X-0.150000X0.587500X-0.150000X0.587500X0.150000X-0.587500X0.150000X0*%
%ADD19C,3.200000*%
%ADD20R,1.800000X1.800000*%
%ADD21C,1.800000*%
%ADD22RoundRect,0.250000X1.000000X0.650000X-1.000000X0.650000X-1.000000X-0.650000X1.000000X-0.650000X0*%
%ADD23R,1.700000X1.000000*%
%ADD24RoundRect,0.225000X-0.225000X-0.250000X0.225000X-0.250000X0.225000X0.250000X-0.225000X0.250000X0*%
%ADD25C,2.010000*%
%ADD26C,4.000000*%
%ADD27C,4.400000*%
%ADD28FreePoly0,0.000000*%
%ADD29RoundRect,0.200000X0.275000X-0.200000X0.275000X0.200000X-0.275000X0.200000X-0.275000X-0.200000X0*%
%ADD30RoundRect,0.150000X-0.825000X-0.150000X0.825000X-0.150000X0.825000X0.150000X-0.825000X0.150000X0*%
%ADD31RoundRect,0.150000X0.825000X0.150000X-0.825000X0.150000X-0.825000X-0.150000X0.825000X-0.150000X0*%
%ADD32RoundRect,0.248400X0.651600X0.651600X-0.651600X0.651600X-0.651600X-0.651600X0.651600X-0.651600X0*%
%ADD33RoundRect,0.093750X-0.093750X-0.106250X0.093750X-0.106250X0.093750X0.106250X-0.093750X0.106250X0*%
%ADD34R,1.000000X1.600000*%
%ADD35RoundRect,0.375000X-0.625000X-0.375000X0.625000X-0.375000X0.625000X0.375000X-0.625000X0.375000X0*%
%ADD36RoundRect,0.500000X-0.500000X-1.400000X0.500000X-1.400000X0.500000X1.400000X-0.500000X1.400000X0*%
%ADD37RoundRect,0.250000X-1.050000X-1.050000X1.050000X-1.050000X1.050000X1.050000X-1.050000X1.050000X0*%
%ADD38C,2.600000*%
G04 APERTURE END LIST*
D10*
%TO.C,U201*%
X220661800Y-105090000D03*
X220661800Y-106360000D03*
X220661800Y-107630000D03*
X220661800Y-108900000D03*
X220661800Y-110170000D03*
X220661800Y-111440000D03*
X220661800Y-112710000D03*
X220661800Y-113980000D03*
X220661800Y-115250000D03*
X220661800Y-116520000D03*
X220661800Y-117790000D03*
X220661800Y-119060000D03*
X220661800Y-120330000D03*
X220661800Y-121600000D03*
D11*
X223696800Y-122850000D03*
X224966800Y-122850000D03*
X226236800Y-122850000D03*
X227506800Y-122850000D03*
X228776800Y-122850000D03*
X230046800Y-122850000D03*
X231316800Y-122850000D03*
X232586800Y-122850000D03*
X233856800Y-122850000D03*
X235126800Y-122850000D03*
D10*
X238161800Y-121600000D03*
X238161800Y-120330000D03*
X238161800Y-119060000D03*
X238161800Y-117790000D03*
X238161800Y-116520000D03*
X238161800Y-115250000D03*
X238161800Y-113980000D03*
X238161800Y-112710000D03*
X238161800Y-111440000D03*
X238161800Y-110170000D03*
X238161800Y-108900000D03*
X238161800Y-107630000D03*
X238161800Y-106360000D03*
X238161800Y-105090000D03*
D12*
X226511800Y-111410000D03*
D13*
X226511800Y-112110000D03*
D12*
X226511800Y-112810000D03*
D13*
X226511800Y-113510000D03*
D12*
X226511800Y-114210000D03*
D13*
X227211800Y-111410000D03*
X227211800Y-112810000D03*
X227211800Y-114210000D03*
D12*
X227911800Y-111410000D03*
D13*
X227911800Y-112110000D03*
D12*
X227911800Y-112810000D03*
D13*
X227911800Y-113510000D03*
D12*
X227911800Y-114210000D03*
D13*
X228611800Y-111410000D03*
X228611800Y-112810000D03*
X228611800Y-114210000D03*
D12*
X229311800Y-111410000D03*
D13*
X229311800Y-112110000D03*
D12*
X229311800Y-112810000D03*
D13*
X229311800Y-113510000D03*
D12*
X229311800Y-114210000D03*
%TD*%
D14*
%TO.C,R204*%
X198175000Y-139000000D03*
X199825000Y-139000000D03*
%TD*%
D15*
%TO.C,C603*%
X252000000Y-172775000D03*
X252000000Y-171225000D03*
%TD*%
%TO.C,C202*%
X214000000Y-112775000D03*
X214000000Y-111225000D03*
%TD*%
D16*
%TO.C,J105*%
X191000000Y-150000000D03*
D17*
X193540000Y-150000000D03*
X196080000Y-150000000D03*
%TD*%
D18*
%TO.C,Q601*%
X255062500Y-104050000D03*
X255062500Y-105950000D03*
X256937500Y-105000000D03*
%TD*%
D14*
%TO.C,R201*%
X216175000Y-111000000D03*
X217825000Y-111000000D03*
%TD*%
D15*
%TO.C,C201*%
X217000000Y-107775000D03*
X217000000Y-106225000D03*
%TD*%
D16*
%TO.C,J401*%
X122000000Y-125000000D03*
D17*
X124540000Y-125000000D03*
X122000000Y-127540000D03*
X124540000Y-127540000D03*
X122000000Y-130080000D03*
X124540000Y-130080000D03*
X122000000Y-132620000D03*
X124540000Y-132620000D03*
X122000000Y-135160000D03*
X124540000Y-135160000D03*
X122000000Y-137700000D03*
X124540000Y-137700000D03*
X122000000Y-140240000D03*
X124540000Y-140240000D03*
X122000000Y-142780000D03*
X124540000Y-142780000D03*
X122000000Y-145320000D03*
X124540000Y-145320000D03*
X122000000Y-147860000D03*
X124540000Y-147860000D03*
%TD*%
D19*
%TO.C,H103*%
X293450000Y-148905100D03*
%TD*%
D20*
%TO.C,D602*%
X237650000Y-138675100D03*
D21*
X237650000Y-136135100D03*
%TD*%
D14*
%TO.C,R612*%
X227175000Y-148000000D03*
X228825000Y-148000000D03*
%TD*%
D18*
%TO.C,Q602*%
X230062500Y-144050000D03*
X230062500Y-145950000D03*
X231937500Y-145000000D03*
%TD*%
D19*
%TO.C,H104*%
X200700000Y-171050000D03*
%TD*%
D22*
%TO.C,D101*%
X174000000Y-130000000D03*
X170000000Y-130000000D03*
%TD*%
D14*
%TO.C,R602*%
X230175000Y-141000000D03*
X231825000Y-141000000D03*
%TD*%
D23*
%TO.C,SW201*%
X205850000Y-115100000D03*
X212150000Y-115100000D03*
X205850000Y-118900000D03*
X212150000Y-118900000D03*
%TD*%
D14*
%TO.C,R603*%
X290175000Y-131000000D03*
X291825000Y-131000000D03*
%TD*%
D24*
%TO.C,C401*%
X134225000Y-115000000D03*
X135775000Y-115000000D03*
%TD*%
D25*
%TO.C,F101*%
X145000000Y-150000000D03*
X150100000Y-151200000D03*
%TD*%
D23*
%TO.C,SW202*%
X224850000Y-127100000D03*
X231150000Y-127100000D03*
X224850000Y-130900000D03*
X231150000Y-130900000D03*
%TD*%
D25*
%TO.C,F102*%
X145000000Y-157000000D03*
X150100000Y-158200000D03*
%TD*%
D19*
%TO.C,H106*%
X132036600Y-169550000D03*
%TD*%
D15*
%TO.C,C105*%
X195000000Y-132775000D03*
X195000000Y-131225000D03*
%TD*%
D24*
%TO.C,C203*%
X212225000Y-108000000D03*
X213775000Y-108000000D03*
%TD*%
D22*
%TO.C,D102*%
X174000000Y-143000000D03*
X170000000Y-143000000D03*
%TD*%
D26*
%TO.C,TP103*%
X174000000Y-156000000D03*
%TD*%
D14*
%TO.C,R301*%
X163175000Y-164000000D03*
X164825000Y-164000000D03*
%TD*%
D20*
%TO.C,D601*%
X267341400Y-101100000D03*
D21*
X264801400Y-101100000D03*
%TD*%
D27*
%TO.C,J104*%
X179520000Y-163120000D03*
D28*
X182470000Y-163120000D03*
%TD*%
D14*
%TO.C,R402*%
X136175000Y-125000000D03*
X137825000Y-125000000D03*
%TD*%
D15*
%TO.C,C101*%
X160000000Y-130775000D03*
X160000000Y-129225000D03*
%TD*%
D14*
%TO.C,R202*%
X219175000Y-129000000D03*
X220825000Y-129000000D03*
%TD*%
%TO.C,R502*%
X147175000Y-132000000D03*
X148825000Y-132000000D03*
%TD*%
D29*
%TO.C,R302*%
X163000000Y-160825000D03*
X163000000Y-159175000D03*
%TD*%
%TO.C,R622*%
X234000000Y-148825000D03*
X234000000Y-147175000D03*
%TD*%
D30*
%TO.C,U401*%
X129525000Y-118095000D03*
X129525000Y-119365000D03*
X129525000Y-120635000D03*
X129525000Y-121905000D03*
X134475000Y-121905000D03*
X134475000Y-120635000D03*
X134475000Y-119365000D03*
X134475000Y-118095000D03*
%TD*%
D26*
%TO.C,TP104*%
X185000000Y-156000000D03*
%TD*%
D27*
%TO.C,J101*%
X162370000Y-111720000D03*
D28*
X165320000Y-111720000D03*
%TD*%
D31*
%TO.C,U501*%
X146525000Y-139307800D03*
X146525000Y-138037800D03*
X146525000Y-136767800D03*
X146525000Y-135497800D03*
X141575000Y-135497800D03*
X141575000Y-136767800D03*
X141575000Y-138037800D03*
X141575000Y-139307800D03*
%TD*%
D32*
%TO.C,U601*%
X268611400Y-172120000D03*
D21*
X266071400Y-172120000D03*
X263531400Y-172120000D03*
%TD*%
D19*
%TO.C,H102*%
X200700000Y-103800000D03*
%TD*%
D27*
%TO.C,J103*%
X169720000Y-163120000D03*
D28*
X172670000Y-163120000D03*
%TD*%
D33*
%TO.C,U101*%
X163112500Y-129350000D03*
X163112500Y-130000000D03*
X163112500Y-130650000D03*
X164887500Y-130650000D03*
X164887500Y-130000000D03*
X164887500Y-129350000D03*
D34*
X164000000Y-130000000D03*
%TD*%
D26*
%TO.C,TP101*%
X157000000Y-116000000D03*
%TD*%
D35*
%TO.C,U102*%
X182850000Y-128700000D03*
X182850000Y-131000000D03*
D36*
X189150000Y-131000000D03*
D35*
X182850000Y-133300000D03*
%TD*%
D15*
%TO.C,C501*%
X149000000Y-137775000D03*
X149000000Y-136225000D03*
%TD*%
D26*
%TO.C,TP102*%
X177000000Y-116000000D03*
%TD*%
D24*
%TO.C,C204*%
X201225000Y-139000000D03*
X202775000Y-139000000D03*
%TD*%
D14*
%TO.C,R501*%
X143175000Y-132000000D03*
X144825000Y-132000000D03*
%TD*%
D29*
%TO.C,R401*%
X128000000Y-116825000D03*
X128000000Y-115175000D03*
%TD*%
%TO.C,R604*%
X258000000Y-172825000D03*
X258000000Y-171175000D03*
%TD*%
D15*
%TO.C,C103*%
X182000000Y-137775000D03*
X182000000Y-136225000D03*
%TD*%
%TO.C,C602*%
X255000000Y-172775000D03*
X255000000Y-171225000D03*
%TD*%
D29*
%TO.C,R621*%
X260000000Y-105825000D03*
X260000000Y-104175000D03*
%TD*%
D14*
%TO.C,R203*%
X195175000Y-139000000D03*
X196825000Y-139000000D03*
%TD*%
D15*
%TO.C,C104*%
X192000000Y-132775000D03*
X192000000Y-131225000D03*
%TD*%
D16*
%TO.C,J201*%
X205000000Y-145000000D03*
D17*
X207540000Y-145000000D03*
X210080000Y-145000000D03*
X212620000Y-145000000D03*
X215160000Y-145000000D03*
X217700000Y-145000000D03*
%TD*%
D14*
%TO.C,R403*%
X136175000Y-128000000D03*
X137825000Y-128000000D03*
%TD*%
D20*
%TO.C,Q603*%
X295280000Y-135847600D03*
D21*
X295280000Y-133307600D03*
%TD*%
D19*
%TO.C,H105*%
X132036600Y-105300000D03*
%TD*%
D14*
%TO.C,R611*%
X251175000Y-108000000D03*
X252825000Y-108000000D03*
%TD*%
D15*
%TO.C,C502*%
X149000000Y-140775000D03*
X149000000Y-139225000D03*
%TD*%
D14*
%TO.C,R601*%
X255175000Y-101000000D03*
X256825000Y-101000000D03*
%TD*%
D24*
%TO.C,C601*%
X294725000Y-142500000D03*
X296275000Y-142500000D03*
%TD*%
D37*
%TO.C,J106*%
X145000000Y-167000000D03*
D38*
X150080000Y-167000000D03*
X155160000Y-167000000D03*
%TD*%
D19*
%TO.C,H101*%
X293450000Y-125905100D03*
%TD*%
D15*
%TO.C,C102*%
X166000000Y-126775000D03*
X166000000Y-125225000D03*
%TD*%
D27*
%TO.C,J102*%
X172169900Y-111720000D03*
D28*
X175119900Y-111720000D03*
%TD*%
M02*
