%TF.GenerationSoftware,KiCad,Pcbnew,10.0.5*%
%TF.CreationDate,2026-10-06T16:37:07+08:00*%
%TF.ProjectId,Rdrop-GPT6,5264726f-702d-4475-9054-362e6b696361,rev?*%
%TF.SameCoordinates,Original*%
%TF.FileFunction,Paste,Top*%
%TF.FilePolarity,Positive*%
%FSLAX46Y46*%
G04 Gerber Fmt 4.6, Leading zero omitted, Abs format (unit mm)*
G04 Created by KiCad (PCBNEW 10.0.5) date 2026-10-06 16:37:07*
%MOMM*%
%LPD*%
G01*
G04 APERTURE LIST*
G04 Aperture macros list*
%AMRoundRect*
0 Rectangle with rounded corners*
0 $1 Rounding radius*
0 $2 $3 $4 $5 $6 $7 $8 $9 X,Y pos of 4 corners*
0 Add a 4 corners polygon primitive as box body*
4,1,4,$2,$3,$4,$5,$6,$7,$8,$9,$2,$3,0*
0 Add four circle primitives for the rounded corners*
1,1,$1+$1,$2,$3*
1,1,$1+$1,$4,$5*
1,1,$1+$1,$6,$7*
1,1,$1+$1,$8,$9*
0 Add four rect primitives between the rounded corners*
20,1,$1+$1,$2,$3,$4,$5,0*
20,1,$1+$1,$4,$5,$6,$7,0*
20,1,$1+$1,$6,$7,$8,$9,0*
20,1,$1+$1,$8,$9,$2,$3,0*%
%AMFreePoly0*
4,1,89,1.705938,1.382119,1.727190,1.382119,1.740395,1.376648,1.748388,1.375380,1.753541,1.371203,1.763238,1.367187,1.783498,1.346926,1.788604,1.342789,1.789206,1.341218,1.790828,1.339597,1.805760,1.303549,1.806488,1.296147,1.807137,1.294457,1.806839,1.292584,1.807681,1.284040,1.807681,0.377294,1.805760,0.357785,1.801357,0.347155,1.800516,0.340124,1.795878,0.333929,
1.790828,0.321737,1.774607,0.305516,1.769494,0.298686,1.766491,0.297400,1.763238,0.294147,1.727190,0.279215,1.724020,0.279215,1.721909,0.278311,1.585287,0.258640,1.318478,0.187776,1.061748,0.086291,0.818600,-0.044431,0.592349,-0.202607,0.386080,-0.386080,0.202607,-0.592349,0.044431,-0.818600,-0.086291,-1.061748,-0.187776,-1.318478,-0.258640,-1.585287,-0.278311,-1.721909,
-0.279215,-1.724020,-0.279215,-1.727190,-0.294147,-1.763238,-0.297400,-1.766491,-0.298686,-1.769494,-0.305516,-1.774607,-0.321737,-1.790828,-0.333929,-1.795878,-0.340124,-1.800516,-0.347155,-1.801357,-0.357785,-1.805760,-0.377294,-1.807681,-1.284040,-1.807681,-1.292584,-1.806839,-1.294457,-1.807137,-1.296147,-1.806488,-1.303549,-1.805760,-1.339597,-1.790828,-1.341218,-1.789206,-1.342789,-1.788604,
-1.346926,-1.783498,-1.367187,-1.763238,-1.371203,-1.753541,-1.375380,-1.748388,-1.376648,-1.740395,-1.382119,-1.727190,-1.382119,-1.705937,-1.383496,-1.697264,-1.382119,-1.688334,-1.382119,-1.688172,-1.382079,-1.688075,-1.332212,-1.364699,-1.248866,-1.038687,-1.134246,-0.722314,-0.989435,-0.418570,-0.815805,-0.130330,-0.614996,0.139681,-0.388909,0.388909,-0.139681,0.614996,0.130330,0.815805,
0.418570,0.989435,0.722314,1.134246,1.038687,1.248866,1.364699,1.332212,1.688075,1.382079,1.688172,1.382119,1.688334,1.382119,1.697264,1.383496,1.705938,1.382119,1.705938,1.382119,$1*%
%AMFreePoly1*
4,1,89,-0.357785,1.805760,-0.347155,1.801357,-0.340124,1.800516,-0.333929,1.795878,-0.321737,1.790828,-0.305516,1.774607,-0.298686,1.769494,-0.297400,1.766491,-0.294147,1.763238,-0.279215,1.727190,-0.279215,1.724020,-0.278311,1.721909,-0.258640,1.585287,-0.187776,1.318478,-0.086291,1.061748,0.044431,0.818600,0.202607,0.592349,0.386080,0.386080,0.592349,0.202607,0.818600,0.044431,
1.061748,-0.086291,1.318478,-0.187776,1.585287,-0.258640,1.721909,-0.278311,1.724020,-0.279215,1.727190,-0.279215,1.763238,-0.294147,1.766491,-0.297400,1.769494,-0.298686,1.774607,-0.305516,1.790828,-0.321737,1.795878,-0.333929,1.800516,-0.340124,1.801357,-0.347155,1.805760,-0.357785,1.807681,-0.377294,1.807681,-1.284040,1.806839,-1.292584,1.807137,-1.294457,1.806488,-1.296147,
1.805760,-1.303549,1.790828,-1.339597,1.789206,-1.341218,1.788604,-1.342789,1.783498,-1.346926,1.763238,-1.367187,1.753541,-1.371203,1.748388,-1.375380,1.740395,-1.376648,1.727190,-1.382119,1.705938,-1.382119,1.697264,-1.383496,1.688334,-1.382119,1.688172,-1.382119,1.688075,-1.382079,1.364699,-1.332212,1.038687,-1.248866,0.722314,-1.134246,0.418570,-0.989435,0.130330,-0.815805,
-0.139681,-0.614996,-0.388909,-0.388909,-0.614996,-0.139681,-0.815805,0.130330,-0.989435,0.418570,-1.134246,0.722314,-1.248866,1.038687,-1.332212,1.364699,-1.382079,1.688075,-1.382119,1.688172,-1.382119,1.688334,-1.383496,1.697264,-1.382119,1.705937,-1.382119,1.727190,-1.376648,1.740395,-1.375380,1.748388,-1.371203,1.753541,-1.367187,1.763238,-1.346926,1.783498,-1.342789,1.788604,
-1.341218,1.789206,-1.339597,1.790828,-1.303549,1.805760,-1.296147,1.806488,-1.294457,1.807137,-1.292584,1.806839,-1.284040,1.807681,-0.377294,1.807681,-0.357785,1.805760,-0.357785,1.805760,$1*%
%AMFreePoly2*
4,1,89,-1.688334,1.382119,-1.688172,1.382119,-1.688075,1.382079,-1.364699,1.332212,-1.038687,1.248866,-0.722314,1.134246,-0.418570,0.989435,-0.130330,0.815805,0.139681,0.614996,0.388909,0.388909,0.614996,0.139681,0.815805,-0.130330,0.989435,-0.418570,1.134246,-0.722314,1.248866,-1.038687,1.332212,-1.364699,1.382079,-1.688075,1.382119,-1.688172,1.382119,-1.688334,1.383496,-1.697264,
1.382119,-1.705937,1.382119,-1.727190,1.376648,-1.740395,1.375380,-1.748388,1.371203,-1.753541,1.367187,-1.763238,1.346926,-1.783498,1.342789,-1.788604,1.341218,-1.789206,1.339597,-1.790828,1.303549,-1.805760,1.296147,-1.806488,1.294457,-1.807137,1.292584,-1.806839,1.284040,-1.807681,0.377294,-1.807681,0.357785,-1.805760,0.347155,-1.801357,0.340124,-1.800516,0.333929,-1.795878,
0.321737,-1.790828,0.305516,-1.774607,0.298686,-1.769494,0.297400,-1.766491,0.294147,-1.763238,0.279215,-1.727190,0.279215,-1.724020,0.278311,-1.721909,0.258640,-1.585287,0.187776,-1.318478,0.086291,-1.061748,-0.044431,-0.818600,-0.202607,-0.592349,-0.386080,-0.386080,-0.592349,-0.202607,-0.818600,-0.044431,-1.061748,0.086291,-1.318478,0.187776,-1.585287,0.258640,-1.721909,0.278311,
-1.724020,0.279215,-1.727190,0.279215,-1.763238,0.294147,-1.766491,0.297400,-1.769494,0.298686,-1.774607,0.305516,-1.790828,0.321737,-1.795878,0.333929,-1.800516,0.340124,-1.801357,0.347155,-1.805760,0.357785,-1.807681,0.377294,-1.807681,1.284040,-1.806839,1.292584,-1.807137,1.294457,-1.806488,1.296147,-1.805760,1.303549,-1.790828,1.339597,-1.789206,1.341218,-1.788604,1.342789,
-1.783498,1.346926,-1.763238,1.367187,-1.753541,1.371203,-1.748388,1.375380,-1.740395,1.376648,-1.727190,1.382119,-1.705938,1.382119,-1.697264,1.383496,-1.688334,1.382119,-1.688334,1.382119,$1*%
%AMFreePoly3*
4,1,89,1.292584,1.806839,1.294457,1.807137,1.296147,1.806488,1.303549,1.805760,1.339597,1.790828,1.341218,1.789206,1.342789,1.788604,1.346926,1.783498,1.367187,1.763238,1.371203,1.753541,1.375380,1.748388,1.376648,1.740395,1.382119,1.727190,1.382119,1.705937,1.383496,1.697264,1.382119,1.688334,1.382119,1.688172,1.382079,1.688075,1.332212,1.364699,1.248866,1.038687,
1.134246,0.722314,0.989435,0.418570,0.815805,0.130330,0.614996,-0.139681,0.388909,-0.388909,0.139681,-0.614996,-0.130330,-0.815805,-0.418570,-0.989435,-0.722314,-1.134246,-1.038687,-1.248866,-1.364699,-1.332212,-1.688075,-1.382079,-1.688172,-1.382119,-1.688334,-1.382119,-1.697264,-1.383496,-1.705938,-1.382119,-1.727190,-1.382119,-1.740395,-1.376648,-1.748388,-1.375380,-1.753541,-1.371203,
-1.763238,-1.367187,-1.783498,-1.346926,-1.788604,-1.342789,-1.789206,-1.341218,-1.790828,-1.339597,-1.805760,-1.303549,-1.806488,-1.296147,-1.807137,-1.294457,-1.806839,-1.292584,-1.807681,-1.284040,-1.807681,-0.377294,-1.805760,-0.357785,-1.801357,-0.347155,-1.800516,-0.340124,-1.795878,-0.333929,-1.790828,-0.321737,-1.774607,-0.305516,-1.769494,-0.298686,-1.766491,-0.297400,-1.763238,-0.294147,
-1.727190,-0.279215,-1.724020,-0.279215,-1.721909,-0.278311,-1.585287,-0.258640,-1.318478,-0.187776,-1.061748,-0.086291,-0.818600,0.044431,-0.592349,0.202607,-0.386080,0.386080,-0.202607,0.592349,-0.044431,0.818600,0.086291,1.061748,0.187776,1.318478,0.258640,1.585287,0.278311,1.721909,0.279215,1.724020,0.279215,1.727190,0.294147,1.763238,0.297400,1.766491,0.298686,1.769494,
0.305516,1.774607,0.321737,1.790828,0.333929,1.795878,0.340124,1.800516,0.347155,1.801357,0.357785,1.805760,0.377294,1.807681,1.284040,1.807681,1.292584,1.806839,1.292584,1.806839,$1*%
G04 Aperture macros list end*
%ADD10R,1.500000X0.900000*%
%ADD11R,0.900000X1.500000*%
%ADD12R,0.900000X0.900000*%
%ADD13RoundRect,0.200000X-0.200000X-0.275000X0.200000X-0.275000X0.200000X0.275000X-0.200000X0.275000X0*%
%ADD14RoundRect,0.225000X0.250000X-0.225000X0.250000X0.225000X-0.250000X0.225000X-0.250000X-0.225000X0*%
%ADD15RoundRect,0.150000X-0.587500X-0.150000X0.587500X-0.150000X0.587500X0.150000X-0.587500X0.150000X0*%
%ADD16RoundRect,0.250000X1.000000X0.650000X-1.000000X0.650000X-1.000000X-0.650000X1.000000X-0.650000X0*%
%ADD17R,1.700000X1.000000*%
%ADD18RoundRect,0.225000X-0.225000X-0.250000X0.225000X-0.250000X0.225000X0.250000X-0.225000X0.250000X0*%
%ADD19FreePoly0,0.000000*%
%ADD20FreePoly1,0.000000*%
%ADD21FreePoly2,0.000000*%
%ADD22FreePoly3,0.000000*%
%ADD23RoundRect,0.200000X0.275000X-0.200000X0.275000X0.200000X-0.275000X0.200000X-0.275000X-0.200000X0*%
%ADD24RoundRect,0.150000X-0.825000X-0.150000X0.825000X-0.150000X0.825000X0.150000X-0.825000X0.150000X0*%
%ADD25RoundRect,0.150000X0.825000X0.150000X-0.825000X0.150000X-0.825000X-0.150000X0.825000X-0.150000X0*%
%ADD26RoundRect,0.172500X-0.262500X-0.172500X0.262500X-0.172500X0.262500X0.172500X-0.262500X0.172500X0*%
%ADD27RoundRect,0.093750X-0.093750X-0.106250X0.093750X-0.106250X0.093750X0.106250X-0.093750X0.106250X0*%
%ADD28RoundRect,0.375000X-0.625000X-0.375000X0.625000X-0.375000X0.625000X0.375000X-0.625000X0.375000X0*%
%ADD29RoundRect,0.500000X-0.500000X-1.400000X0.500000X-1.400000X0.500000X1.400000X-0.500000X1.400000X0*%
G04 APERTURE END LIST*
D10*
%TO.C,U201*%
X220661800Y-105090000D03*
X220661800Y-106360000D03*
X220661800Y-107630000D03*
X220661800Y-108900000D03*
X220661800Y-110170000D03*
X220661800Y-111440000D03*
X220661800Y-112710000D03*
X220661800Y-113980000D03*
X220661800Y-115250000D03*
X220661800Y-116520000D03*
X220661800Y-117790000D03*
X220661800Y-119060000D03*
X220661800Y-120330000D03*
X220661800Y-121600000D03*
D11*
X223696800Y-122850000D03*
X224966800Y-122850000D03*
X226236800Y-122850000D03*
X227506800Y-122850000D03*
X228776800Y-122850000D03*
X230046800Y-122850000D03*
X231316800Y-122850000D03*
X232586800Y-122850000D03*
X233856800Y-122850000D03*
X235126800Y-122850000D03*
D10*
X238161800Y-121600000D03*
X238161800Y-120330000D03*
X238161800Y-119060000D03*
X238161800Y-117790000D03*
X238161800Y-116520000D03*
X238161800Y-115250000D03*
X238161800Y-113980000D03*
X238161800Y-112710000D03*
X238161800Y-111440000D03*
X238161800Y-110170000D03*
X238161800Y-108900000D03*
X238161800Y-107630000D03*
X238161800Y-106360000D03*
X238161800Y-105090000D03*
D12*
X226511800Y-111410000D03*
X226511800Y-112810000D03*
X226511800Y-114210000D03*
X227911800Y-111410000D03*
X227911800Y-112810000D03*
X227911800Y-114210000D03*
X229311800Y-111410000D03*
X229311800Y-112810000D03*
X229311800Y-114210000D03*
%TD*%
D13*
%TO.C,R204*%
X198175000Y-139000000D03*
X199825000Y-139000000D03*
%TD*%
D14*
%TO.C,C603*%
X252000000Y-172775000D03*
X252000000Y-171225000D03*
%TD*%
%TO.C,C202*%
X214000000Y-112775000D03*
X214000000Y-111225000D03*
%TD*%
D15*
%TO.C,Q601*%
X255062500Y-104050000D03*
X255062500Y-105950000D03*
X256937500Y-105000000D03*
%TD*%
D13*
%TO.C,R201*%
X216175000Y-111000000D03*
X217825000Y-111000000D03*
%TD*%
D14*
%TO.C,C201*%
X217000000Y-107775000D03*
X217000000Y-106225000D03*
%TD*%
D13*
%TO.C,R612*%
X227175000Y-148000000D03*
X228825000Y-148000000D03*
%TD*%
D15*
%TO.C,Q602*%
X230062500Y-144050000D03*
X230062500Y-145950000D03*
X231937500Y-145000000D03*
%TD*%
D16*
%TO.C,D101*%
X174000000Y-130000000D03*
X170000000Y-130000000D03*
%TD*%
D13*
%TO.C,R602*%
X230175000Y-141000000D03*
X231825000Y-141000000D03*
%TD*%
D17*
%TO.C,SW201*%
X205850000Y-115100000D03*
X212150000Y-115100000D03*
X205850000Y-118900000D03*
X212150000Y-118900000D03*
%TD*%
D13*
%TO.C,R603*%
X290175000Y-131000000D03*
X291825000Y-131000000D03*
%TD*%
D18*
%TO.C,C401*%
X134225000Y-115000000D03*
X135775000Y-115000000D03*
%TD*%
D17*
%TO.C,SW202*%
X224850000Y-127100000D03*
X231150000Y-127100000D03*
X224850000Y-130900000D03*
X231150000Y-130900000D03*
%TD*%
D14*
%TO.C,C105*%
X195000000Y-132775000D03*
X195000000Y-131225000D03*
%TD*%
D18*
%TO.C,C203*%
X212225000Y-108000000D03*
X213775000Y-108000000D03*
%TD*%
D16*
%TO.C,D102*%
X174000000Y-143000000D03*
X170000000Y-143000000D03*
%TD*%
D13*
%TO.C,R301*%
X163175000Y-164000000D03*
X164825000Y-164000000D03*
%TD*%
D19*
%TO.C,J104*%
X177462319Y-161062319D03*
D20*
X177462319Y-165177681D03*
D21*
X181577681Y-161062319D03*
D22*
X181577681Y-165177681D03*
%TD*%
D13*
%TO.C,R402*%
X136175000Y-125000000D03*
X137825000Y-125000000D03*
%TD*%
D14*
%TO.C,C101*%
X160000000Y-130775000D03*
X160000000Y-129225000D03*
%TD*%
D13*
%TO.C,R202*%
X219175000Y-129000000D03*
X220825000Y-129000000D03*
%TD*%
%TO.C,R502*%
X147175000Y-132000000D03*
X148825000Y-132000000D03*
%TD*%
D23*
%TO.C,R302*%
X163000000Y-160825000D03*
X163000000Y-159175000D03*
%TD*%
%TO.C,R622*%
X234000000Y-148825000D03*
X234000000Y-147175000D03*
%TD*%
D24*
%TO.C,U401*%
X129525000Y-118095000D03*
X129525000Y-119365000D03*
X129525000Y-120635000D03*
X129525000Y-121905000D03*
X134475000Y-121905000D03*
X134475000Y-120635000D03*
X134475000Y-119365000D03*
X134475000Y-118095000D03*
%TD*%
D19*
%TO.C,J101*%
X160312319Y-109662319D03*
D20*
X160312319Y-113777681D03*
D21*
X164427681Y-109662319D03*
D22*
X164427681Y-113777681D03*
%TD*%
D25*
%TO.C,U501*%
X146525000Y-139307800D03*
X146525000Y-138037800D03*
X146525000Y-136767800D03*
X146525000Y-135497800D03*
X141575000Y-135497800D03*
X141575000Y-136767800D03*
X141575000Y-138037800D03*
X141575000Y-139307800D03*
%TD*%
D19*
%TO.C,J103*%
X167662319Y-161062319D03*
D20*
X167662319Y-165177681D03*
D21*
X171777681Y-161062319D03*
D22*
X171777681Y-165177681D03*
%TD*%
D26*
%TO.C,U101*%
X164000000Y-129600000D03*
X164000000Y-130400000D03*
D27*
X163112500Y-129350000D03*
X163112500Y-130000000D03*
X163112500Y-130650000D03*
X164887500Y-130650000D03*
X164887500Y-130000000D03*
X164887500Y-129350000D03*
%TD*%
D28*
%TO.C,U102*%
X182850000Y-128700000D03*
X182850000Y-131000000D03*
D29*
X189150000Y-131000000D03*
D28*
X182850000Y-133300000D03*
%TD*%
D14*
%TO.C,C501*%
X149000000Y-137775000D03*
X149000000Y-136225000D03*
%TD*%
D18*
%TO.C,C204*%
X201225000Y-139000000D03*
X202775000Y-139000000D03*
%TD*%
D13*
%TO.C,R501*%
X143175000Y-132000000D03*
X144825000Y-132000000D03*
%TD*%
D23*
%TO.C,R401*%
X128000000Y-116825000D03*
X128000000Y-115175000D03*
%TD*%
%TO.C,R604*%
X258000000Y-172825000D03*
X258000000Y-171175000D03*
%TD*%
D14*
%TO.C,C103*%
X182000000Y-137775000D03*
X182000000Y-136225000D03*
%TD*%
%TO.C,C602*%
X255000000Y-172775000D03*
X255000000Y-171225000D03*
%TD*%
D23*
%TO.C,R621*%
X260000000Y-105825000D03*
X260000000Y-104175000D03*
%TD*%
D13*
%TO.C,R203*%
X195175000Y-139000000D03*
X196825000Y-139000000D03*
%TD*%
D14*
%TO.C,C104*%
X192000000Y-132775000D03*
X192000000Y-131225000D03*
%TD*%
D13*
%TO.C,R403*%
X136175000Y-128000000D03*
X137825000Y-128000000D03*
%TD*%
%TO.C,R611*%
X251175000Y-108000000D03*
X252825000Y-108000000D03*
%TD*%
D14*
%TO.C,C502*%
X149000000Y-140775000D03*
X149000000Y-139225000D03*
%TD*%
D13*
%TO.C,R601*%
X255175000Y-101000000D03*
X256825000Y-101000000D03*
%TD*%
D18*
%TO.C,C601*%
X294725000Y-142500000D03*
X296275000Y-142500000D03*
%TD*%
D14*
%TO.C,C102*%
X166000000Y-126775000D03*
X166000000Y-125225000D03*
%TD*%
D19*
%TO.C,J102*%
X170112219Y-109662319D03*
D20*
X170112219Y-113777681D03*
D21*
X174227581Y-109662319D03*
D22*
X174227581Y-113777681D03*
%TD*%
M02*
