%TF.GenerationSoftware,KiCad,Pcbnew,10.0.5*%
%TF.CreationDate,2026-10-06T16:37:07+08:00*%
%TF.ProjectId,Rdrop-GPT6,5264726f-702d-4475-9054-362e6b696361,rev?*%
%TF.SameCoordinates,Original*%
%TF.FileFunction,Profile,NP*%
%FSLAX46Y46*%
G04 Gerber Fmt 4.6, Leading zero omitted, Abs format (unit mm)*
G04 Created by KiCad (PCBNEW 10.0.5) date 2026-10-06 16:37:07*
%MOMM*%
%LPD*%
G01*
G04 APERTURE LIST*
%TA.AperFunction,Profile*%
%ADD10C,0.050000*%
%TD*%
%ADD11C,0.050000*%
%TA.AperFunction,Profile*%
%ADD12C,0.250000*%
%TD*%
%ADD13C,0.250000*%
G04 APERTURE END LIST*
D10*
X110070000Y-112410000D02*
G75*
G02*
X113066740Y-109440129I2958000J12100D01*
G01*
X110070000Y-162404510D02*
X110070000Y-112404510D01*
X113039816Y-165401249D02*
G75*
G02*
X110069981Y-162404510I-12116J2957949D01*
G01*
X113039816Y-165401249D02*
X125039816Y-165401249D01*
X113070685Y-109440184D02*
X125070685Y-109440184D01*
X125039816Y-165401249D02*
G75*
G02*
X128036581Y-168371065I38784J-2957751D01*
G01*
X128036555Y-170371065D02*
X128036555Y-168371065D01*
X128067424Y-104470485D02*
G75*
G02*
X131064163Y-101500653I2957976J12085D01*
G01*
X128067424Y-106470368D02*
G75*
G02*
X125070685Y-109440195I-2958024J-12032D01*
G01*
X128067424Y-106470485D02*
X128067424Y-104470485D01*
X131046642Y-173361065D02*
G75*
G02*
X128036467Y-170371065I-34942J2975065D01*
G01*
X131046642Y-173361065D02*
X195845089Y-173361065D01*
X131064163Y-101500756D02*
X195825000Y-101520000D01*
D11*
X195825000Y-101520000D02*
X195838528Y-101517581D01*
X195852025Y-101515148D01*
X195865490Y-101512700D01*
X195878923Y-101510238D01*
X195892326Y-101507761D01*
X195905697Y-101505269D01*
X195919037Y-101502763D01*
X195932346Y-101500242D01*
X195945624Y-101497707D01*
X195958871Y-101495158D01*
X195972088Y-101492594D01*
X195985273Y-101490015D01*
X195998428Y-101487423D01*
X196011552Y-101484816D01*
X196024646Y-101482194D01*
X196037709Y-101479559D01*
X196050742Y-101476909D01*
X196063745Y-101474245D01*
X196076718Y-101471566D01*
X196089660Y-101468874D01*
X196102573Y-101466167D01*
X196115455Y-101463446D01*
X196128309Y-101460711D01*
X196141131Y-101457962D01*
X196153925Y-101455199D01*
X196166688Y-101452422D01*
X196179423Y-101449631D01*
X196192128Y-101446826D01*
X196204804Y-101444007D01*
X196217450Y-101441174D01*
X196230067Y-101438326D01*
X196242655Y-101435466D01*
X196255214Y-101432591D01*
X196267744Y-101429702D01*
X196280246Y-101426799D01*
X196292717Y-101423883D01*
X196305162Y-101420953D01*
X196317576Y-101418009D01*
X196329964Y-101415051D01*
X196342321Y-101412080D01*
X196354652Y-101409094D01*
X196366952Y-101406096D01*
X196379227Y-101403083D01*
X196391471Y-101400057D01*
X196403689Y-101397017D01*
X196415877Y-101393963D01*
X196428039Y-101390896D01*
X196440172Y-101387816D01*
X196452279Y-101384721D01*
X196464356Y-101381613D01*
X196476407Y-101378492D01*
X196488429Y-101375357D01*
X196500426Y-101372209D01*
X196512393Y-101369047D01*
X196524335Y-101365871D01*
X196536248Y-101362683D01*
X196548135Y-101359481D01*
X196559994Y-101356265D01*
X196571828Y-101353036D01*
X196583633Y-101349794D01*
X196595413Y-101346538D01*
X196607164Y-101343269D01*
X196618891Y-101339987D01*
X196630589Y-101336691D01*
X196642263Y-101333382D01*
X196653909Y-101330060D01*
X196665530Y-101326724D01*
X196677123Y-101323376D01*
X196688692Y-101320013D01*
X196700232Y-101316638D01*
X196711749Y-101313250D01*
X196723237Y-101309848D01*
X196734703Y-101306433D01*
X196746140Y-101303006D01*
X196757554Y-101299564D01*
X196768939Y-101296110D01*
X196780302Y-101292642D01*
X196791636Y-101289162D01*
X196802948Y-101285668D01*
X196814232Y-101282162D01*
X196825494Y-101278642D01*
X196836727Y-101275109D01*
X196847939Y-101271563D01*
X196859122Y-101268004D01*
X196870284Y-101264432D01*
X196881417Y-101260847D01*
X196892529Y-101257249D01*
X196903613Y-101253638D01*
X196914676Y-101250014D01*
X196925711Y-101246377D01*
X196936725Y-101242727D01*
X196947712Y-101239064D01*
X196958677Y-101235388D01*
X196969615Y-101231699D01*
X196980532Y-101227997D01*
X196991421Y-101224283D01*
X197002291Y-101220554D01*
X197013132Y-101216815D01*
X197023954Y-101213060D01*
X197034747Y-101209295D01*
X197045522Y-101205515D01*
X197056268Y-101201723D01*
X197066996Y-101197917D01*
X197077695Y-101194100D01*
X197088376Y-101190269D01*
X197099029Y-101186426D01*
X197109663Y-101182568D01*
X197120269Y-101178700D01*
X197130857Y-101174817D01*
X197141418Y-101170922D01*
X197151960Y-101167013D01*
X197162475Y-101163094D01*
X197172971Y-101159159D01*
X197183441Y-101155213D01*
X197193892Y-101151253D01*
X197204316Y-101147282D01*
X197214723Y-101143296D01*
X197225102Y-101139299D01*
X197235464Y-101135288D01*
X197245799Y-101131265D01*
X197256117Y-101127228D01*
X197266408Y-101123180D01*
X197286928Y-101115044D01*
X197307361Y-101106856D01*
X197327708Y-101098617D01*
X197347969Y-101090327D01*
X197368144Y-101081985D01*
X197388234Y-101073592D01*
X197408241Y-101065148D01*
X197428163Y-101056652D01*
X197448003Y-101048105D01*
X197467761Y-101039507D01*
X197487436Y-101030857D01*
X197507031Y-101022156D01*
X197526545Y-101013403D01*
X197545980Y-101004598D01*
X197565335Y-100995742D01*
X197584611Y-100986834D01*
X197603810Y-100977874D01*
X197622931Y-100968862D01*
X197641975Y-100959798D01*
X197660944Y-100950681D01*
X197679836Y-100941513D01*
X197698654Y-100932292D01*
X197717398Y-100923019D01*
X197736068Y-100913693D01*
X197754665Y-100904314D01*
X197773190Y-100894883D01*
X197791643Y-100885398D01*
X197810025Y-100875860D01*
X197828337Y-100866269D01*
X197846578Y-100856625D01*
X197864751Y-100846926D01*
X197882855Y-100837174D01*
X197900891Y-100827368D01*
X197918861Y-100817507D01*
X197936763Y-100807592D01*
X197954600Y-100797622D01*
X197972372Y-100787597D01*
X197990079Y-100777517D01*
X198007722Y-100767382D01*
X198025302Y-100757190D01*
X198042819Y-100746943D01*
X198060275Y-100736640D01*
X198077669Y-100726280D01*
X198095003Y-100715863D01*
X198112277Y-100705389D01*
X198129492Y-100694858D01*
X198146649Y-100684268D01*
X198163748Y-100673621D01*
X198180791Y-100662915D01*
X198197777Y-100652150D01*
X198214707Y-100641325D01*
X198231583Y-100630442D01*
X198248405Y-100619497D01*
X198265174Y-100608493D01*
X198281890Y-100597427D01*
X198298555Y-100586300D01*
X198315169Y-100575111D01*
X198331732Y-100563860D01*
X198348247Y-100552545D01*
X198364712Y-100541168D01*
X198381131Y-100529726D01*
X198397502Y-100518219D01*
X198413827Y-100506648D01*
X198430107Y-100495010D01*
X198446343Y-100483307D01*
X198462536Y-100471536D01*
X198478686Y-100459698D01*
X198494794Y-100447791D01*
X198510862Y-100435815D01*
X198526890Y-100423769D01*
X198542880Y-100411652D01*
X198558832Y-100399464D01*
X198574747Y-100387204D01*
X198590626Y-100374871D01*
X198606471Y-100362463D01*
X198622282Y-100349981D01*
X198638060Y-100337422D01*
X198653807Y-100324787D01*
X198669524Y-100312074D01*
X198685212Y-100299282D01*
X198700872Y-100286409D01*
X198716506Y-100273455D01*
X198732114Y-100260419D01*
X198747698Y-100247299D01*
X198763259Y-100234094D01*
X198778799Y-100220803D01*
X198794319Y-100207423D01*
X198809821Y-100193954D01*
X198825306Y-100180395D01*
X198840776Y-100166742D01*
X198856232Y-100152996D01*
X198871676Y-100139154D01*
X198887110Y-100125213D01*
X198902535Y-100111173D01*
X198917954Y-100097032D01*
X198933368Y-100082786D01*
X198948780Y-100068434D01*
X198964191Y-100053974D01*
X198979604Y-100039403D01*
X198995021Y-100024719D01*
X199010445Y-100009918D01*
X199025878Y-99994998D01*
X199041322Y-99979956D01*
X199056782Y-99964789D01*
X199072258Y-99949493D01*
X199087756Y-99934065D01*
X199103277Y-99918500D01*
X199118826Y-99902796D01*
X199134406Y-99886947D01*
X199150021Y-99870949D01*
X199165675Y-99854797D01*
X199181372Y-99838485D01*
X199197118Y-99822009D01*
X199212917Y-99805362D01*
X199228775Y-99788538D01*
X199244698Y-99771529D01*
X199260692Y-99754328D01*
X199276763Y-99736926D01*
X199292919Y-99719316D01*
X199309169Y-99701486D01*
X199325521Y-99683427D01*
X199341984Y-99665127D01*
X199358569Y-99646572D01*
X199375288Y-99627748D01*
X199392153Y-99608640D01*
X199409180Y-99589230D01*
X199426384Y-99569497D01*
X199443784Y-99549419D01*
X199461400Y-99528971D01*
X199479256Y-99508123D01*
X199497380Y-99486842D01*
X199515804Y-99465086D01*
X199534564Y-99442811D01*
X199553706Y-99419960D01*
X199573284Y-99396466D01*
X199593364Y-99372247D01*
X199614030Y-99347199D01*
X199635388Y-99321189D01*
X199657579Y-99294042D01*
X199680796Y-99265516D01*
X199705317Y-99235266D01*
X199731568Y-99202761D01*
X199760269Y-99167101D01*
X199792836Y-99126520D01*
X199832964Y-99076408D01*
X199851937Y-99052695D01*
X199880035Y-99017579D01*
X199908013Y-98982644D01*
X199935888Y-98947901D01*
X199963674Y-98913359D01*
X199977540Y-98896167D01*
X199991390Y-98879030D01*
X200005227Y-98861947D01*
X200019052Y-98844922D01*
X200032867Y-98827955D01*
X200046675Y-98811048D01*
X200060477Y-98794201D01*
X200074276Y-98777417D01*
X200088073Y-98760696D01*
X200101871Y-98744039D01*
X200115672Y-98727449D01*
X200129478Y-98710925D01*
X200143290Y-98694471D01*
X200157111Y-98678086D01*
X200170943Y-98661772D01*
X200184788Y-98645531D01*
X200198648Y-98629364D01*
X200212525Y-98613271D01*
X200226421Y-98597255D01*
X200240338Y-98581317D01*
X200254278Y-98565457D01*
X200268244Y-98549678D01*
X200282237Y-98533980D01*
X200296259Y-98518365D01*
X200303282Y-98510589D01*
X200310312Y-98502834D01*
X200317351Y-98495101D01*
X200324399Y-98487389D01*
X200331456Y-98479699D01*
X200338521Y-98472030D01*
X200345597Y-98464384D01*
X200352681Y-98456760D01*
X200359776Y-98449158D01*
X200366881Y-98441578D01*
X200373996Y-98434021D01*
X200381121Y-98426487D01*
X200388258Y-98418976D01*
X200395406Y-98411489D01*
X200402565Y-98404024D01*
X200409736Y-98396583D01*
X200416919Y-98389165D01*
X200424114Y-98381772D01*
X200431321Y-98374402D01*
X200438542Y-98367056D01*
X200445775Y-98359735D01*
X200453021Y-98352438D01*
X200460281Y-98345165D01*
X200467554Y-98337918D01*
X200474842Y-98330695D01*
X200482143Y-98323497D01*
X200489460Y-98316325D01*
X200496791Y-98309178D01*
X200504137Y-98302057D01*
X200511498Y-98294961D01*
X200518874Y-98287891D01*
X200526267Y-98280847D01*
X200533675Y-98273830D01*
X200541100Y-98266838D01*
X200548541Y-98259874D01*
X200556000Y-98252936D01*
X200563475Y-98246025D01*
X200570967Y-98239141D01*
X200578477Y-98232284D01*
X200586005Y-98225454D01*
X200593551Y-98218652D01*
X200601115Y-98211878D01*
X200608698Y-98205131D01*
X200616299Y-98198413D01*
X200623920Y-98191722D01*
X200631560Y-98185060D01*
X200639220Y-98178427D01*
X200646899Y-98171822D01*
X200654599Y-98165246D01*
X200662319Y-98158698D01*
X200670059Y-98152180D01*
X200677821Y-98145692D01*
X200685603Y-98139232D01*
X200693407Y-98132802D01*
X200701233Y-98126403D01*
X200709081Y-98120033D01*
X200716950Y-98113693D01*
X200724843Y-98107383D01*
X200732757Y-98101104D01*
X200740695Y-98094855D01*
X200748656Y-98088637D01*
X200756640Y-98082450D01*
X200764648Y-98076294D01*
X200772680Y-98070170D01*
X200780737Y-98064076D01*
X200788817Y-98058015D01*
X200796923Y-98051985D01*
X200805053Y-98045986D01*
X200813209Y-98040020D01*
X200821390Y-98034086D01*
X200829596Y-98028185D01*
X200837829Y-98022316D01*
X200846088Y-98016480D01*
X200854374Y-98010676D01*
X200862686Y-98004906D01*
X200871025Y-97999168D01*
X200879392Y-97993465D01*
X200887786Y-97987794D01*
X200896208Y-97982157D01*
X200904658Y-97976554D01*
X200913136Y-97970985D01*
X200921643Y-97965451D01*
X200930179Y-97959950D01*
X200938743Y-97954484D01*
X200947337Y-97949053D01*
X200955961Y-97943656D01*
X200964614Y-97938294D01*
X200973298Y-97932968D01*
X200982012Y-97927677D01*
X200990756Y-97922421D01*
X200999532Y-97917201D01*
X201008338Y-97912016D01*
X201017176Y-97906868D01*
X201026045Y-97901755D01*
X201034946Y-97896679D01*
X201043880Y-97891639D01*
X201052846Y-97886636D01*
X201061844Y-97881670D01*
X201070875Y-97876740D01*
X201079940Y-97871848D01*
X201089038Y-97866992D01*
X201098169Y-97862175D01*
X201107335Y-97857394D01*
X201116535Y-97852652D01*
X201125769Y-97847947D01*
X201135037Y-97843280D01*
X201144341Y-97838652D01*
X201153680Y-97834062D01*
X201163055Y-97829510D01*
X201172465Y-97824997D01*
X201181911Y-97820523D01*
X201191393Y-97816088D01*
X201200912Y-97811692D01*
X201210468Y-97807335D01*
X201220060Y-97803018D01*
X201229690Y-97798741D01*
X201239357Y-97794503D01*
X201249062Y-97790305D01*
X201258805Y-97786148D01*
X201268587Y-97782031D01*
X201278406Y-97777954D01*
X201288265Y-97773918D01*
X201298163Y-97769922D01*
X201308100Y-97765968D01*
X201318076Y-97762055D01*
X201328093Y-97758183D01*
X201338149Y-97754352D01*
X201348246Y-97750563D01*
X201358383Y-97746816D01*
X201368561Y-97743110D01*
X201378780Y-97739447D01*
X201389041Y-97735826D01*
X201399343Y-97732248D01*
X201409687Y-97728712D01*
X201420073Y-97725218D01*
X201430502Y-97721768D01*
X201440973Y-97718361D01*
X201451487Y-97714997D01*
X201462044Y-97711676D01*
X201472644Y-97708399D01*
X201483288Y-97705165D01*
X201493976Y-97701976D01*
X201504709Y-97698830D01*
X201515485Y-97695729D01*
X201526306Y-97692671D01*
X201537173Y-97689659D01*
X201548084Y-97686691D01*
X201559041Y-97683768D01*
X201570043Y-97680890D01*
X201581092Y-97678057D01*
X201592186Y-97675270D01*
X201603327Y-97672527D01*
X201614515Y-97669831D01*
X201625750Y-97667180D01*
X201637032Y-97664576D01*
X201648361Y-97662017D01*
X201659738Y-97659505D01*
X201671164Y-97657039D01*
X201682637Y-97654620D01*
X201694159Y-97652248D01*
X201705730Y-97649922D01*
X201717349Y-97647644D01*
X201729018Y-97645413D01*
X201740737Y-97643229D01*
X201752505Y-97641093D01*
X201764323Y-97639005D01*
X201776192Y-97636964D01*
X201788111Y-97634972D01*
X201800081Y-97633028D01*
X201812102Y-97631132D01*
X201824174Y-97629285D01*
X201836298Y-97627487D01*
X201848474Y-97625737D01*
X201860702Y-97624037D01*
X201872982Y-97622386D01*
X201885315Y-97620784D01*
X201897700Y-97619231D01*
X201910139Y-97617729D01*
X201922631Y-97616276D01*
X201935177Y-97614873D01*
X201947776Y-97613520D01*
X201960430Y-97612218D01*
X201973138Y-97610966D01*
X201985901Y-97609765D01*
X201998718Y-97608615D01*
X202011591Y-97607516D01*
X202024519Y-97606468D01*
X202037503Y-97605471D01*
X202050543Y-97604526D01*
X202063639Y-97603632D01*
X202076791Y-97602790D01*
X202090000Y-97602000D01*
X195845089Y-173369998D02*
X195858617Y-173372417D01*
X195872114Y-173374850D01*
X195885579Y-173377298D01*
X195899013Y-173379760D01*
X195912416Y-173382238D01*
X195925787Y-173384729D01*
X195939128Y-173387235D01*
X195952437Y-173389756D01*
X195965716Y-173392291D01*
X195978963Y-173394841D01*
X195992181Y-173397405D01*
X196005367Y-173399984D01*
X196018523Y-173402576D01*
X196031648Y-173405184D01*
X196044743Y-173407805D01*
X196057807Y-173410441D01*
X196070842Y-173413091D01*
X196083846Y-173415755D01*
X196096820Y-173418434D01*
X196109764Y-173421127D01*
X196122679Y-173423834D01*
X196135563Y-173426555D01*
X196148418Y-173429290D01*
X196161242Y-173432040D01*
X196174038Y-173434803D01*
X196186803Y-173437581D01*
X196199540Y-173440372D01*
X196212247Y-173443178D01*
X196224925Y-173445998D01*
X196237573Y-173448831D01*
X196250193Y-173451679D01*
X196262783Y-173454540D01*
X196275345Y-173457415D01*
X196287877Y-173460304D01*
X196300382Y-173463208D01*
X196312856Y-173466125D01*
X196325304Y-173469055D01*
X196337721Y-173472000D01*
X196350111Y-173474958D01*
X196362471Y-173477930D01*
X196374805Y-173480916D01*
X196387109Y-173483916D01*
X196399386Y-173486929D01*
X196411634Y-173489956D01*
X196423855Y-173492997D01*
X196436047Y-173496051D01*
X196448213Y-173499119D01*
X196460349Y-173502200D01*
X196472459Y-173505295D01*
X196484540Y-173508404D01*
X196496595Y-173511526D01*
X196508621Y-173514662D01*
X196520621Y-173517811D01*
X196532592Y-173520973D01*
X196544539Y-173524150D01*
X196556455Y-173527339D01*
X196568347Y-173530543D01*
X196580210Y-173533759D01*
X196592048Y-173536989D01*
X196603857Y-173540232D01*
X196615642Y-173543489D01*
X196627398Y-173546759D01*
X196639130Y-173550042D01*
X196650832Y-173553339D01*
X196662511Y-173556649D01*
X196674161Y-173559972D01*
X196685787Y-173563309D01*
X196697384Y-173566659D01*
X196708958Y-173570022D01*
X196720504Y-173573398D01*
X196732026Y-173576788D01*
X196743519Y-173580191D01*
X196754990Y-173583607D01*
X196766432Y-173587036D01*
X196777851Y-173590479D01*
X196789242Y-173593934D01*
X196800610Y-173597403D01*
X196811950Y-173600884D01*
X196823268Y-173604380D01*
X196834557Y-173607887D01*
X196845824Y-173611409D01*
X196857063Y-173614942D01*
X196868281Y-173618490D01*
X196879470Y-173622050D01*
X196890637Y-173625624D01*
X196901777Y-173629210D01*
X196912895Y-173632810D01*
X196923985Y-173636422D01*
X196935054Y-173640048D01*
X196946095Y-173643686D01*
X196957115Y-173647338D01*
X196968108Y-173651002D01*
X196979079Y-173654680D01*
X196990023Y-173658370D01*
X197000947Y-173662074D01*
X197011843Y-173665790D01*
X197022718Y-173669520D01*
X197033567Y-173673262D01*
X197044395Y-173677017D01*
X197055195Y-173680785D01*
X197065976Y-173684567D01*
X197076730Y-173688360D01*
X197087464Y-173692167D01*
X197098170Y-173695986D01*
X197108858Y-173699820D01*
X197119518Y-173703664D01*
X197130159Y-173707524D01*
X197140772Y-173711394D01*
X197151367Y-173715279D01*
X197161935Y-173719175D01*
X197172484Y-173723086D01*
X197183007Y-173727008D01*
X197193511Y-173730944D01*
X197203987Y-173734892D01*
X197214446Y-173738854D01*
X197224878Y-173742827D01*
X197235292Y-173746815D01*
X197245679Y-173750814D01*
X197256049Y-173754828D01*
X197266391Y-173758852D01*
X197287015Y-173766942D01*
X197307551Y-173775082D01*
X197328001Y-173783275D01*
X197348363Y-173791518D01*
X197368640Y-173799813D01*
X197388832Y-173808159D01*
X197408939Y-173816557D01*
X197428962Y-173825006D01*
X197448902Y-173833506D01*
X197468759Y-173842058D01*
X197488534Y-173850662D01*
X197508228Y-173859317D01*
X197527840Y-173868023D01*
X197547372Y-173876782D01*
X197566825Y-173885592D01*
X197586198Y-173894454D01*
X197605493Y-173903367D01*
X197624711Y-173912333D01*
X197643851Y-173921351D01*
X197662914Y-173930421D01*
X197681902Y-173939543D01*
X197700814Y-173948718D01*
X197719652Y-173957945D01*
X197738415Y-173967224D01*
X197757105Y-173976556D01*
X197775723Y-173985941D01*
X197794268Y-173995380D01*
X197812742Y-174004871D01*
X197831145Y-174014415D01*
X197849477Y-174024013D01*
X197867740Y-174033665D01*
X197885934Y-174043371D01*
X197904060Y-174053130D01*
X197922118Y-174062944D01*
X197940109Y-174072812D01*
X197958034Y-174082734D01*
X197975893Y-174092712D01*
X197993687Y-174102745D01*
X198011417Y-174112833D01*
X198029083Y-174122976D01*
X198046687Y-174133175D01*
X198064227Y-174143431D01*
X198081707Y-174153743D01*
X198099125Y-174164111D01*
X198116483Y-174174537D01*
X198133782Y-174185020D01*
X198151022Y-174195560D01*
X198168203Y-174206159D01*
X198185327Y-174216815D01*
X198202395Y-174227531D01*
X198219407Y-174238305D01*
X198236363Y-174249139D01*
X198253265Y-174260033D01*
X198270113Y-174270988D01*
X198286909Y-174282002D01*
X198303652Y-174293079D01*
X198320344Y-174304216D01*
X198336985Y-174315416D01*
X198353576Y-174326679D01*
X198370119Y-174338004D01*
X198386613Y-174349393D01*
X198403060Y-174360847D01*
X198419460Y-174372365D01*
X198435815Y-174383949D01*
X198452124Y-174395599D01*
X198468390Y-174407315D01*
X198484613Y-174419099D01*
X198500794Y-174430950D01*
X198516934Y-174442871D01*
X198533033Y-174454860D01*
X198549094Y-174466920D01*
X198565115Y-174479051D01*
X198581100Y-174491254D01*
X198597048Y-174503529D01*
X198612961Y-174515878D01*
X198628840Y-174528301D01*
X198644686Y-174540800D01*
X198660500Y-174553375D01*
X198676283Y-174566027D01*
X198692037Y-174578757D01*
X198707762Y-174591568D01*
X198723459Y-174604458D01*
X198739131Y-174617431D01*
X198754778Y-174630486D01*
X198770402Y-174643626D01*
X198786004Y-174656852D01*
X198801585Y-174670165D01*
X198817147Y-174683566D01*
X198832692Y-174697057D01*
X198848220Y-174710640D01*
X198863735Y-174724316D01*
X198879236Y-174738087D01*
X198894726Y-174751955D01*
X198910208Y-174765921D01*
X198925682Y-174779989D01*
X198941150Y-174794159D01*
X198956616Y-174808434D01*
X198972079Y-174822816D01*
X198987544Y-174837307D01*
X199003012Y-174851911D01*
X199018486Y-174866630D01*
X199033968Y-174881467D01*
X199049461Y-174896423D01*
X199064967Y-174911504D01*
X199080490Y-174926712D01*
X199096032Y-174942050D01*
X199111597Y-174957523D01*
X199127188Y-174973134D01*
X199142809Y-174988887D01*
X199158464Y-175004787D01*
X199174157Y-175020839D01*
X199189891Y-175037048D01*
X199205673Y-175053420D01*
X199221506Y-175069959D01*
X199237396Y-175086673D01*
X199253350Y-175103569D01*
X199269372Y-175120653D01*
X199285470Y-175137935D01*
X199301651Y-175155422D01*
X199317923Y-175173124D01*
X199334294Y-175191051D01*
X199350774Y-175209215D01*
X199367373Y-175227629D01*
X199384103Y-175246306D01*
X199400975Y-175265261D01*
X199418005Y-175284513D01*
X199435208Y-175304079D01*
X199452602Y-175323982D01*
X199470207Y-175344247D01*
X199488045Y-175364902D01*
X199506144Y-175385979D01*
X199524534Y-175407516D01*
X199543252Y-175429559D01*
X199562340Y-175452159D01*
X199581849Y-175475380D01*
X199601844Y-175499302D01*
X199622404Y-175524021D01*
X199643627Y-175549661D01*
X199665648Y-175576385D01*
X199688643Y-175604417D01*
X199712869Y-175634069D01*
X199738708Y-175665817D01*
X199766794Y-175700446D01*
X199798319Y-175739433D01*
X199836142Y-175786322D01*
X199865321Y-175822537D01*
X199893555Y-175857578D01*
X199921664Y-175892433D01*
X199949664Y-175927092D01*
X199977572Y-175961544D01*
X199991497Y-175978688D01*
X200005406Y-175995777D01*
X200019299Y-176012809D01*
X200033180Y-176029782D01*
X200047051Y-176046696D01*
X200060913Y-176063549D01*
X200074769Y-176080339D01*
X200088620Y-176097065D01*
X200102469Y-176113727D01*
X200116318Y-176130322D01*
X200130168Y-176146850D01*
X200144023Y-176163308D01*
X200157884Y-176179697D01*
X200171753Y-176196013D01*
X200185632Y-176212257D01*
X200199523Y-176228427D01*
X200213428Y-176244520D01*
X200227350Y-176260537D01*
X200241290Y-176276476D01*
X200255251Y-176292336D01*
X200269234Y-176308114D01*
X200283242Y-176323810D01*
X200297277Y-176339423D01*
X200311340Y-176354951D01*
X200318383Y-176362683D01*
X200325435Y-176370393D01*
X200332494Y-176378081D01*
X200339562Y-176385747D01*
X200346638Y-176393391D01*
X200353724Y-176401013D01*
X200360819Y-176408612D01*
X200367923Y-176416188D01*
X200375037Y-176423742D01*
X200382162Y-176431272D01*
X200389296Y-176438780D01*
X200396441Y-176446264D01*
X200403597Y-176453724D01*
X200410764Y-176461161D01*
X200417942Y-176468574D01*
X200425132Y-176475963D01*
X200432334Y-176483328D01*
X200439548Y-176490668D01*
X200446774Y-176497984D01*
X200454012Y-176505276D01*
X200461264Y-176512542D01*
X200468529Y-176519783D01*
X200475807Y-176527000D01*
X200483099Y-176534191D01*
X200490405Y-176541356D01*
X200497725Y-176548496D01*
X200505059Y-176555610D01*
X200512408Y-176562698D01*
X200519773Y-176569760D01*
X200527152Y-176576795D01*
X200534547Y-176583804D01*
X200541957Y-176590787D01*
X200549384Y-176597742D01*
X200556826Y-176604671D01*
X200564285Y-176611573D01*
X200571761Y-176618447D01*
X200579254Y-176625293D01*
X200586765Y-176632112D01*
X200594293Y-176638904D01*
X200601838Y-176645667D01*
X200609402Y-176652402D01*
X200616984Y-176659109D01*
X200624584Y-176665787D01*
X200632204Y-176672437D01*
X200639842Y-176679058D01*
X200647500Y-176685650D01*
X200655177Y-176692213D01*
X200662875Y-176698747D01*
X200670592Y-176705251D01*
X200678330Y-176711725D01*
X200686088Y-176718170D01*
X200693868Y-176724585D01*
X200701668Y-176730970D01*
X200709490Y-176737324D01*
X200717334Y-176743648D01*
X200725199Y-176749941D01*
X200733087Y-176756204D01*
X200740997Y-176762436D01*
X200748930Y-176768636D01*
X200756886Y-176774806D01*
X200764865Y-176780943D01*
X200772868Y-176787050D01*
X200780894Y-176793124D01*
X200788944Y-176799167D01*
X200797019Y-176805177D01*
X200805118Y-176811155D01*
X200813242Y-176817101D01*
X200821391Y-176823014D01*
X200829565Y-176828895D01*
X200837765Y-176834742D01*
X200845991Y-176840557D01*
X200854242Y-176846338D01*
X200862520Y-176852086D01*
X200870825Y-176857800D01*
X200879156Y-176863481D01*
X200887515Y-176869127D01*
X200895901Y-176874740D01*
X200904314Y-176880318D01*
X200912756Y-176885862D01*
X200921225Y-176891371D01*
X200929723Y-176896846D01*
X200938250Y-176902285D01*
X200946806Y-176907690D01*
X200955390Y-176913059D01*
X200964004Y-176918393D01*
X200972648Y-176923692D01*
X200981322Y-176928955D01*
X200990026Y-176934181D01*
X200998761Y-176939372D01*
X201007526Y-176944527D01*
X201016322Y-176949645D01*
X201025150Y-176954727D01*
X201034008Y-176959771D01*
X201042899Y-176964779D01*
X201051822Y-176969750D01*
X201060777Y-176974684D01*
X201069765Y-176979581D01*
X201078785Y-176984440D01*
X201087838Y-176989261D01*
X201096925Y-176994044D01*
X201106045Y-176998789D01*
X201115199Y-177003496D01*
X201124388Y-177008165D01*
X201133610Y-177012795D01*
X201142867Y-177017387D01*
X201152159Y-177021940D01*
X201161487Y-177026453D01*
X201170849Y-177030928D01*
X201180247Y-177035363D01*
X201189681Y-177039758D01*
X201199152Y-177044114D01*
X201208658Y-177048430D01*
X201218202Y-177052706D01*
X201227782Y-177056942D01*
X201237399Y-177061138D01*
X201247054Y-177065293D01*
X201256747Y-177069407D01*
X201266478Y-177073480D01*
X201276246Y-177077513D01*
X201286054Y-177081504D01*
X201295900Y-177085454D01*
X201305785Y-177089363D01*
X201315709Y-177093230D01*
X201325673Y-177097055D01*
X201335677Y-177100838D01*
X201345720Y-177104579D01*
X201355804Y-177108277D01*
X201365929Y-177111933D01*
X201376094Y-177115547D01*
X201386301Y-177119117D01*
X201396548Y-177122645D01*
X201406838Y-177126129D01*
X201417169Y-177129570D01*
X201427542Y-177132968D01*
X201437958Y-177136322D01*
X201448416Y-177139632D01*
X201458917Y-177142899D01*
X201469462Y-177146121D01*
X201480049Y-177149299D01*
X201490681Y-177152432D01*
X201501356Y-177155521D01*
X201512076Y-177158565D01*
X201522839Y-177161564D01*
X201533648Y-177164518D01*
X201544502Y-177167426D01*
X201555400Y-177170289D01*
X201566345Y-177173107D01*
X201577334Y-177175878D01*
X201588370Y-177178604D01*
X201599453Y-177181284D01*
X201610581Y-177183917D01*
X201621757Y-177186504D01*
X201632979Y-177189044D01*
X201644249Y-177191538D01*
X201655566Y-177193984D01*
X201666931Y-177196384D01*
X201678344Y-177198736D01*
X201689806Y-177201041D01*
X201701316Y-177203298D01*
X201712875Y-177205507D01*
X201724483Y-177207669D01*
X201736140Y-177209782D01*
X201747847Y-177211847D01*
X201759604Y-177213864D01*
X201771411Y-177215832D01*
X201783268Y-177217751D01*
X201795176Y-177219622D01*
X201807135Y-177221443D01*
X201819145Y-177223215D01*
X201831206Y-177224938D01*
X201843319Y-177226611D01*
X201855484Y-177228234D01*
X201867701Y-177229808D01*
X201879971Y-177231331D01*
X201892293Y-177232804D01*
X201904669Y-177234227D01*
X201917097Y-177235599D01*
X201929579Y-177236920D01*
X201942115Y-177238191D01*
X201954705Y-177239410D01*
X201967349Y-177240578D01*
X201980048Y-177241695D01*
X201992801Y-177242760D01*
X202005609Y-177243774D01*
X202018473Y-177244735D01*
X202031392Y-177245645D01*
X202044367Y-177246502D01*
X202057399Y-177247307D01*
X202070486Y-177248060D01*
X202083630Y-177248759D01*
X202096831Y-177249406D01*
X202110089Y-177250000D01*
D10*
X202090000Y-97602000D02*
X220000000Y-97602000D01*
X202110089Y-177250000D02*
X260594982Y-177250000D01*
X220000000Y-97602000D02*
X220000000Y-104060000D01*
X220002434Y-104060000D02*
X238891799Y-104060000D01*
X238890234Y-104060000D02*
X238890234Y-97560000D01*
D12*
X239079946Y-133913786D02*
G75*
G02*
X240079946Y-132913746I1000054J-14D01*
G01*
X239082763Y-140913769D02*
X239079946Y-133913786D01*
X239956040Y-141896337D02*
G75*
G02*
X239082704Y-140913708I70460J942037D01*
G01*
X239956040Y-141896337D02*
X245071245Y-141900000D01*
X240079946Y-132913786D02*
X245070000Y-132931231D01*
X245071245Y-128405096D02*
G75*
G02*
X258571243Y-109137213I20500055J-4D01*
G01*
X245071245Y-128405100D02*
X245071245Y-132931235D01*
X245071245Y-141900000D02*
X245071248Y-146480000D01*
X258571246Y-165672915D02*
G75*
G02*
X245071243Y-146480000I6893254J19192915D01*
G01*
D10*
X260592681Y-97558126D02*
G75*
G02*
X284918571Y-106507056I-849081J-39845074D01*
G01*
X260594958Y-97560000D02*
X238890234Y-97560000D01*
D12*
X261570962Y-166250161D02*
X261570962Y-167501452D01*
X261571362Y-167501452D02*
X270571362Y-167501452D01*
D13*
X261571496Y-166250133D02*
X261546062Y-166248938D01*
X261520510Y-166247658D01*
X261494839Y-166246292D01*
X261469051Y-166244840D01*
X261443144Y-166243301D01*
X261417120Y-166241675D01*
X261390978Y-166239962D01*
X261364719Y-166238162D01*
X261338342Y-166236273D01*
X261311847Y-166234296D01*
X261285236Y-166232231D01*
X261258508Y-166230076D01*
X261231663Y-166227832D01*
X261204702Y-166225499D01*
X261177625Y-166223075D01*
X261150432Y-166220561D01*
X261123124Y-166217956D01*
X261095701Y-166215260D01*
X261068163Y-166212473D01*
X261040511Y-166209594D01*
X261012746Y-166206623D01*
X260984867Y-166203560D01*
X260956876Y-166200405D01*
X260928772Y-166197156D01*
X260900557Y-166193815D01*
X260872231Y-166190380D01*
X260843795Y-166186851D01*
X260815249Y-166183229D01*
X260786595Y-166179513D01*
X260757832Y-166175702D01*
X260728963Y-166171797D01*
X260699987Y-166167797D01*
X260670907Y-166163702D01*
X260641721Y-166159512D01*
X260612433Y-166155227D01*
X260583043Y-166150847D01*
X260553551Y-166146371D01*
X260523960Y-166141799D01*
X260494270Y-166137132D01*
X260464484Y-166132368D01*
X260434601Y-166127509D01*
X260404625Y-166122554D01*
X260374555Y-166117504D01*
X260344395Y-166112357D01*
X260314146Y-166107114D01*
X260283809Y-166101776D01*
X260253386Y-166096341D01*
X260222881Y-166090812D01*
X260192293Y-166085186D01*
X260161627Y-166079465D01*
X260130884Y-166073649D01*
X260100066Y-166067739D01*
X260069177Y-166061733D01*
X260038218Y-166055633D01*
X260007193Y-166049440D01*
X259976105Y-166043152D01*
X259944957Y-166036772D01*
X259913752Y-166030299D01*
X259882494Y-166023734D01*
X259851187Y-166017077D01*
X259819833Y-166010330D01*
X259788438Y-166003492D01*
X259757006Y-165996566D01*
X259725541Y-165989551D01*
X259694049Y-165982448D01*
X259662533Y-165975260D01*
X259631000Y-165967986D01*
X259599456Y-165960629D01*
X259567906Y-165953188D01*
X259536357Y-165945667D01*
X259504815Y-165938067D01*
X259473289Y-165930388D01*
X259441785Y-165922634D01*
X259410312Y-165914807D01*
X259378879Y-165906907D01*
X259347495Y-165898939D01*
X259316171Y-165890905D01*
X259284916Y-165882807D01*
X259253743Y-165874650D01*
X259222665Y-165866435D01*
X259191694Y-165858168D01*
X259160845Y-165849852D01*
X259130135Y-165841492D01*
X259099580Y-165833093D01*
X259069199Y-165824661D01*
X259039014Y-165816202D01*
X259009045Y-165807723D01*
X258979320Y-165799231D01*
X258949865Y-165790736D01*
X258920711Y-165782246D01*
X258891894Y-165773774D01*
X258863452Y-165765332D01*
X258835430Y-165756934D01*
X258807881Y-165748597D01*
X258780864Y-165740341D01*
X258754449Y-165732190D01*
X258728721Y-165724171D01*
X258703784Y-165716320D01*
X258679765Y-165708680D01*
X258656831Y-165701308D01*
X258635204Y-165694280D01*
X258615198Y-165687705D01*
X258597302Y-165681753D01*
X258582382Y-165676726D01*
X258571246Y-165672915D01*
X261602224Y-108561302D02*
X261576360Y-108562472D01*
X261550384Y-108563727D01*
X261524296Y-108565067D01*
X261498096Y-108566493D01*
X261471785Y-108568005D01*
X261445363Y-108569603D01*
X261418829Y-108571287D01*
X261392185Y-108573059D01*
X261365429Y-108574918D01*
X261338563Y-108576864D01*
X261311587Y-108578899D01*
X261284501Y-108581021D01*
X261257305Y-108583232D01*
X261229999Y-108585533D01*
X261202585Y-108587922D01*
X261175062Y-108590401D01*
X261147430Y-108592969D01*
X261119691Y-108595628D01*
X261091844Y-108598377D01*
X261063890Y-108601216D01*
X261035829Y-108604147D01*
X261007663Y-108607169D01*
X260979391Y-108610282D01*
X260951014Y-108613487D01*
X260922533Y-108616783D01*
X260893949Y-108620172D01*
X260865262Y-108623654D01*
X260836473Y-108627228D01*
X260807583Y-108630895D01*
X260778592Y-108634654D01*
X260749502Y-108638507D01*
X260720313Y-108642454D01*
X260691026Y-108646494D01*
X260661643Y-108650627D01*
X260632165Y-108654855D01*
X260602591Y-108659176D01*
X260572925Y-108663592D01*
X260543167Y-108668101D01*
X260513318Y-108672705D01*
X260483379Y-108677403D01*
X260453353Y-108682196D01*
X260423240Y-108687082D01*
X260393042Y-108692064D01*
X260362761Y-108697139D01*
X260332399Y-108702309D01*
X260301957Y-108707573D01*
X260271437Y-108712931D01*
X260240841Y-108718383D01*
X260210172Y-108723929D01*
X260179431Y-108729568D01*
X260148621Y-108735301D01*
X260117744Y-108741128D01*
X260086803Y-108747047D01*
X260055801Y-108753059D01*
X260024739Y-108759163D01*
X259993622Y-108765359D01*
X259962452Y-108771647D01*
X259931232Y-108778025D01*
X259899966Y-108784494D01*
X259868658Y-108791052D01*
X259837311Y-108797700D01*
X259805929Y-108804436D01*
X259774516Y-108811260D01*
X259743077Y-108818171D01*
X259711617Y-108825167D01*
X259680139Y-108832249D01*
X259648651Y-108839414D01*
X259617156Y-108846661D01*
X259585661Y-108853990D01*
X259554172Y-108861399D01*
X259522696Y-108868886D01*
X259491239Y-108876449D01*
X259459808Y-108884088D01*
X259428412Y-108891799D01*
X259397060Y-108899581D01*
X259365758Y-108907431D01*
X259334519Y-108915348D01*
X259303350Y-108923327D01*
X259272264Y-108931367D01*
X259241273Y-108939463D01*
X259210387Y-108947613D01*
X259179623Y-108955813D01*
X259148993Y-108964058D01*
X259118514Y-108972343D01*
X259088204Y-108980664D01*
X259058081Y-108989014D01*
X259028167Y-108997388D01*
X258998483Y-109005778D01*
X258969056Y-109014177D01*
X258939914Y-109022576D01*
X258911087Y-109030964D01*
X258882611Y-109039331D01*
X258854525Y-109047664D01*
X258826876Y-109055948D01*
X258799715Y-109064165D01*
X258773104Y-109072296D01*
X258747114Y-109080318D01*
X258721831Y-109088199D01*
X258697362Y-109095906D01*
X258673839Y-109103393D01*
X258651433Y-109110602D01*
X258630377Y-109117451D01*
X258611006Y-109123826D01*
X258593846Y-109129543D01*
X258579872Y-109134261D01*
X258571245Y-109137218D01*
D12*
X261605887Y-103446097D02*
X261602224Y-108561302D01*
X261605887Y-103446097D02*
G75*
G02*
X262588513Y-102572826I942013J-70503D01*
G01*
X262588455Y-102572820D02*
X269588438Y-102570003D01*
X269588438Y-102570003D02*
G75*
G02*
X270588497Y-103570003I-38J-1000097D01*
G01*
D13*
X270570962Y-166250140D02*
X270596396Y-166248945D01*
X270621948Y-166247665D01*
X270647619Y-166246299D01*
X270673407Y-166244847D01*
X270699314Y-166243308D01*
X270725338Y-166241682D01*
X270751480Y-166239969D01*
X270777739Y-166238169D01*
X270804116Y-166236280D01*
X270830611Y-166234303D01*
X270857222Y-166232238D01*
X270883950Y-166230083D01*
X270910795Y-166227839D01*
X270937756Y-166225506D01*
X270964833Y-166223082D01*
X270992026Y-166220568D01*
X271019334Y-166217963D01*
X271046757Y-166215267D01*
X271074295Y-166212480D01*
X271101947Y-166209601D01*
X271129712Y-166206630D01*
X271157591Y-166203567D01*
X271185582Y-166200412D01*
X271213686Y-166197163D01*
X271241901Y-166193822D01*
X271270227Y-166190387D01*
X271298663Y-166186858D01*
X271327209Y-166183236D01*
X271355863Y-166179520D01*
X271384626Y-166175709D01*
X271413495Y-166171804D01*
X271442471Y-166167804D01*
X271471551Y-166163709D01*
X271500737Y-166159519D01*
X271530025Y-166155234D01*
X271559415Y-166150854D01*
X271588907Y-166146378D01*
X271618498Y-166141806D01*
X271648188Y-166137139D01*
X271677974Y-166132375D01*
X271707857Y-166127516D01*
X271737833Y-166122561D01*
X271767903Y-166117511D01*
X271798063Y-166112364D01*
X271828312Y-166107121D01*
X271858649Y-166101783D01*
X271889072Y-166096348D01*
X271919577Y-166090819D01*
X271950165Y-166085193D01*
X271980831Y-166079472D01*
X272011574Y-166073656D01*
X272042392Y-166067746D01*
X272073281Y-166061740D01*
X272104240Y-166055640D01*
X272135265Y-166049447D01*
X272166353Y-166043159D01*
X272197501Y-166036779D01*
X272228706Y-166030306D01*
X272259964Y-166023741D01*
X272291271Y-166017084D01*
X272322625Y-166010337D01*
X272354020Y-166003499D01*
X272385452Y-165996573D01*
X272416917Y-165989558D01*
X272448409Y-165982455D01*
X272479925Y-165975267D01*
X272511458Y-165967993D01*
X272543002Y-165960636D01*
X272574552Y-165953195D01*
X272606101Y-165945674D01*
X272637643Y-165938074D01*
X272669169Y-165930395D01*
X272700673Y-165922641D01*
X272732146Y-165914814D01*
X272763579Y-165906914D01*
X272794963Y-165898946D01*
X272826287Y-165890912D01*
X272857542Y-165882814D01*
X272888715Y-165874657D01*
X272919793Y-165866442D01*
X272950764Y-165858175D01*
X272981613Y-165849859D01*
X273012323Y-165841499D01*
X273042878Y-165833100D01*
X273073259Y-165824668D01*
X273103444Y-165816209D01*
X273133413Y-165807730D01*
X273163138Y-165799238D01*
X273192593Y-165790743D01*
X273221747Y-165782253D01*
X273250564Y-165773781D01*
X273279006Y-165765339D01*
X273307028Y-165756941D01*
X273334577Y-165748604D01*
X273361594Y-165740348D01*
X273388009Y-165732197D01*
X273413737Y-165724178D01*
X273438674Y-165716327D01*
X273462693Y-165708687D01*
X273485627Y-165701315D01*
X273507254Y-165694287D01*
X273527260Y-165687712D01*
X273545156Y-165681760D01*
X273560076Y-165676733D01*
X273571212Y-165672922D01*
D12*
X270570962Y-167501452D02*
X270570962Y-166250140D01*
D13*
X270570993Y-108560057D02*
X270596427Y-108561252D01*
X270621979Y-108562532D01*
X270647650Y-108563898D01*
X270673438Y-108565350D01*
X270699345Y-108566889D01*
X270725369Y-108568515D01*
X270751511Y-108570228D01*
X270777770Y-108572028D01*
X270804147Y-108573917D01*
X270830642Y-108575894D01*
X270857253Y-108577959D01*
X270883981Y-108580114D01*
X270910826Y-108582358D01*
X270937787Y-108584691D01*
X270964864Y-108587115D01*
X270992057Y-108589629D01*
X271019365Y-108592234D01*
X271046788Y-108594930D01*
X271074326Y-108597717D01*
X271101978Y-108600596D01*
X271129743Y-108603567D01*
X271157622Y-108606630D01*
X271185613Y-108609785D01*
X271213717Y-108613034D01*
X271241932Y-108616375D01*
X271270258Y-108619810D01*
X271298694Y-108623339D01*
X271327240Y-108626961D01*
X271355894Y-108630677D01*
X271384657Y-108634488D01*
X271413526Y-108638393D01*
X271442502Y-108642393D01*
X271471582Y-108646488D01*
X271500768Y-108650678D01*
X271530056Y-108654963D01*
X271559446Y-108659343D01*
X271588938Y-108663819D01*
X271618529Y-108668391D01*
X271648219Y-108673058D01*
X271678005Y-108677822D01*
X271707888Y-108682681D01*
X271737864Y-108687636D01*
X271767934Y-108692686D01*
X271798094Y-108697833D01*
X271828343Y-108703076D01*
X271858680Y-108708414D01*
X271889103Y-108713849D01*
X271919608Y-108719378D01*
X271950196Y-108725004D01*
X271980862Y-108730725D01*
X272011605Y-108736541D01*
X272042423Y-108742451D01*
X272073312Y-108748457D01*
X272104271Y-108754557D01*
X272135296Y-108760750D01*
X272166384Y-108767038D01*
X272197532Y-108773418D01*
X272228737Y-108779891D01*
X272259995Y-108786456D01*
X272291302Y-108793113D01*
X272322656Y-108799860D01*
X272354051Y-108806698D01*
X272385483Y-108813624D01*
X272416948Y-108820639D01*
X272448440Y-108827742D01*
X272479956Y-108834930D01*
X272511489Y-108842204D01*
X272543033Y-108849561D01*
X272574583Y-108857002D01*
X272606132Y-108864523D01*
X272637674Y-108872123D01*
X272669200Y-108879802D01*
X272700704Y-108887556D01*
X272732177Y-108895383D01*
X272763610Y-108903283D01*
X272794994Y-108911251D01*
X272826318Y-108919285D01*
X272857573Y-108927383D01*
X272888746Y-108935540D01*
X272919824Y-108943755D01*
X272950795Y-108952022D01*
X272981644Y-108960338D01*
X273012354Y-108968698D01*
X273042909Y-108977097D01*
X273073290Y-108985529D01*
X273103475Y-108993988D01*
X273133444Y-109002467D01*
X273163169Y-109010959D01*
X273192624Y-109019454D01*
X273221778Y-109027944D01*
X273250595Y-109036416D01*
X273279037Y-109044858D01*
X273307059Y-109053256D01*
X273334608Y-109061593D01*
X273361625Y-109069849D01*
X273388040Y-109078000D01*
X273413768Y-109086019D01*
X273438705Y-109093870D01*
X273462724Y-109101510D01*
X273485658Y-109108882D01*
X273507285Y-109115910D01*
X273527291Y-109122485D01*
X273545187Y-109128437D01*
X273560107Y-109133464D01*
X273571243Y-109137275D01*
D12*
X270588438Y-103570003D02*
X270570993Y-108560057D01*
X273571245Y-109137275D02*
G75*
G02*
X287071226Y-128355151I-7000045J-19267925D01*
G01*
D10*
X284942693Y-168283301D02*
G75*
G02*
X260594981Y-177249975I-25196693J30878301D01*
G01*
X284942693Y-168283301D02*
G75*
G02*
X289384712Y-164048744I2300207J2034201D01*
G01*
D12*
X287071224Y-128355151D02*
X287071248Y-132931272D01*
X287071245Y-146405104D02*
G75*
G02*
X273571241Y-165672912I-20499945J4D01*
G01*
X287071248Y-141900037D02*
X287071245Y-146405104D01*
D10*
X289375000Y-110750455D02*
G75*
G02*
X284918564Y-106507013I-2176100J2176455D01*
G01*
X289377010Y-110752689D02*
G75*
G02*
X289386451Y-164046811I-29631050J-26652311D01*
G01*
D12*
X292062547Y-132913823D02*
X287072493Y-132931268D01*
X292062547Y-132913823D02*
G75*
G02*
X293062577Y-133913823I-47J-1000077D01*
G01*
X292186453Y-141896374D02*
X287071248Y-141900037D01*
X293059730Y-140913748D02*
G75*
G02*
X292186453Y-141896374I-943730J-40652D01*
G01*
X293059730Y-140913806D02*
X293062547Y-133913823D01*
M02*
