ISO-10303-21;
HEADER;
FILE_DESCRIPTION(('Fuse mechanical envelope'),'2;1');
FILE_NAME('MF-RG900-envelope.step','2026-10-06T00:00:00',('Rdrop'),('Rdrop'),'','','');
FILE_SCHEMA(('AUTOMOTIVE_DESIGN'));
ENDSEC;
DATA;
#1=APPLICATION_CONTEXT('automotive_design');
#2=APPLICATION_PROTOCOL_DEFINITION('international standard','automotive_design',2000,#1);
#3=PRODUCT_CONTEXT('',#1,'mechanical');
#4=PRODUCT('MF-RG900 envelope','MF-RG900 envelope','Datasheet maximum mechanical envelope',(#3));
#5=PRODUCT_DEFINITION_FORMATION('','',#4);
#6=PRODUCT_DEFINITION_CONTEXT('part definition',#1,'design');
#7=PRODUCT_DEFINITION('design','',#5,#6);
#8=PRODUCT_DEFINITION_SHAPE('','',#7);
#9=CARTESIAN_POINT('',(-2.150,-2.100,2.000));
#10=CARTESIAN_POINT('',(9.550,-2.100,2.000));
#11=CARTESIAN_POINT('',(9.550,0.900,2.000));
#12=CARTESIAN_POINT('',(-2.150,0.900,2.000));
#13=CARTESIAN_POINT('',(-2.150,-2.100,23.700));
#14=CARTESIAN_POINT('',(9.550,-2.100,23.700));
#15=CARTESIAN_POINT('',(9.550,0.900,23.700));
#16=CARTESIAN_POINT('',(-2.150,0.900,23.700));
#17=VERTEX_POINT('',#9);
#18=VERTEX_POINT('',#10);
#19=VERTEX_POINT('',#11);
#20=VERTEX_POINT('',#12);
#21=VERTEX_POINT('',#13);
#22=VERTEX_POINT('',#14);
#23=VERTEX_POINT('',#15);
#24=VERTEX_POINT('',#16);
#25=DIRECTION('',(1.0,0.0,0.0));
#26=VECTOR('',#25,11.700000000000001);
#27=LINE('',#12,#26);
#28=EDGE_CURVE('',#20,#19,#27,.T.);
#29=ORIENTED_EDGE('',*,*,#28,.T.);
#30=DIRECTION('',(0.0,-1.0,0.0));
#31=VECTOR('',#30,3.0);
#32=LINE('',#11,#31);
#33=EDGE_CURVE('',#19,#18,#32,.T.);
#34=ORIENTED_EDGE('',*,*,#33,.T.);
#35=DIRECTION('',(-1.0,0.0,0.0));
#36=VECTOR('',#35,11.700000000000001);
#37=LINE('',#10,#36);
#38=EDGE_CURVE('',#18,#17,#37,.T.);
#39=ORIENTED_EDGE('',*,*,#38,.T.);
#40=DIRECTION('',(0.0,1.0,0.0));
#41=VECTOR('',#40,3.0);
#42=LINE('',#9,#41);
#43=EDGE_CURVE('',#17,#20,#42,.T.);
#44=ORIENTED_EDGE('',*,*,#43,.T.);
#45=EDGE_LOOP('',(#29,#34,#39,#44));
#46=FACE_OUTER_BOUND('',#45,.T.);
#47=DIRECTION('',(0.0,0.0,-1.0));
#48=DIRECTION('',(1.0,0.0,0.0));
#49=AXIS2_PLACEMENT_3D('',#12,#47,#48);
#50=PLANE('',#49);
#51=ADVANCED_FACE('',(#46),#50,.T.);
#52=DIRECTION('',(1.0,0.0,0.0));
#53=VECTOR('',#52,11.700000000000001);
#54=LINE('',#9,#53);
#55=EDGE_CURVE('',#17,#18,#54,.T.);
#56=ORIENTED_EDGE('',*,*,#55,.T.);
#57=DIRECTION('',(0.0,0.0,1.0));
#58=VECTOR('',#57,21.7);
#59=LINE('',#10,#58);
#60=EDGE_CURVE('',#18,#22,#59,.T.);
#61=ORIENTED_EDGE('',*,*,#60,.T.);
#62=DIRECTION('',(-1.0,0.0,0.0));
#63=VECTOR('',#62,11.700000000000001);
#64=LINE('',#14,#63);
#65=EDGE_CURVE('',#22,#21,#64,.T.);
#66=ORIENTED_EDGE('',*,*,#65,.T.);
#67=DIRECTION('',(0.0,0.0,-1.0));
#68=VECTOR('',#67,21.7);
#69=LINE('',#13,#68);
#70=EDGE_CURVE('',#21,#17,#69,.T.);
#71=ORIENTED_EDGE('',*,*,#70,.T.);
#72=EDGE_LOOP('',(#56,#61,#66,#71));
#73=FACE_OUTER_BOUND('',#72,.T.);
#74=DIRECTION('',(0.0,-1.0,0.0));
#75=DIRECTION('',(1.0,0.0,0.0));
#76=AXIS2_PLACEMENT_3D('',#9,#74,#75);
#77=PLANE('',#76);
#78=ADVANCED_FACE('',(#73),#77,.T.);
#79=DIRECTION('',(0.0,1.0,0.0));
#80=VECTOR('',#79,3.0);
#81=LINE('',#10,#80);
#82=EDGE_CURVE('',#18,#19,#81,.T.);
#83=ORIENTED_EDGE('',*,*,#82,.T.);
#84=DIRECTION('',(0.0,0.0,1.0));
#85=VECTOR('',#84,21.7);
#86=LINE('',#11,#85);
#87=EDGE_CURVE('',#19,#23,#86,.T.);
#88=ORIENTED_EDGE('',*,*,#87,.T.);
#89=DIRECTION('',(0.0,-1.0,0.0));
#90=VECTOR('',#89,3.0);
#91=LINE('',#15,#90);
#92=EDGE_CURVE('',#23,#22,#91,.T.);
#93=ORIENTED_EDGE('',*,*,#92,.T.);
#94=DIRECTION('',(0.0,0.0,-1.0));
#95=VECTOR('',#94,21.7);
#96=LINE('',#14,#95);
#97=EDGE_CURVE('',#22,#18,#96,.T.);
#98=ORIENTED_EDGE('',*,*,#97,.T.);
#99=EDGE_LOOP('',(#83,#88,#93,#98));
#100=FACE_OUTER_BOUND('',#99,.T.);
#101=DIRECTION('',(1.0,0.0,0.0));
#102=DIRECTION('',(0.0,1.0,0.0));
#103=AXIS2_PLACEMENT_3D('',#10,#101,#102);
#104=PLANE('',#103);
#105=ADVANCED_FACE('',(#100),#104,.T.);
#106=DIRECTION('',(-1.0,0.0,0.0));
#107=VECTOR('',#106,11.700000000000001);
#108=LINE('',#11,#107);
#109=EDGE_CURVE('',#19,#20,#108,.T.);
#110=ORIENTED_EDGE('',*,*,#109,.T.);
#111=DIRECTION('',(0.0,0.0,1.0));
#112=VECTOR('',#111,21.7);
#113=LINE('',#12,#112);
#114=EDGE_CURVE('',#20,#24,#113,.T.);
#115=ORIENTED_EDGE('',*,*,#114,.T.);
#116=DIRECTION('',(1.0,0.0,0.0));
#117=VECTOR('',#116,11.700000000000001);
#118=LINE('',#16,#117);
#119=EDGE_CURVE('',#24,#23,#118,.T.);
#120=ORIENTED_EDGE('',*,*,#119,.T.);
#121=DIRECTION('',(0.0,0.0,-1.0));
#122=VECTOR('',#121,21.7);
#123=LINE('',#15,#122);
#124=EDGE_CURVE('',#23,#19,#123,.T.);
#125=ORIENTED_EDGE('',*,*,#124,.T.);
#126=EDGE_LOOP('',(#110,#115,#120,#125));
#127=FACE_OUTER_BOUND('',#126,.T.);
#128=DIRECTION('',(0.0,1.0,-0.0));
#129=DIRECTION('',(-1.0,0.0,0.0));
#130=AXIS2_PLACEMENT_3D('',#11,#128,#129);
#131=PLANE('',#130);
#132=ADVANCED_FACE('',(#127),#131,.T.);
#133=DIRECTION('',(0.0,-1.0,0.0));
#134=VECTOR('',#133,3.0);
#135=LINE('',#12,#134);
#136=EDGE_CURVE('',#20,#17,#135,.T.);
#137=ORIENTED_EDGE('',*,*,#136,.T.);
#138=DIRECTION('',(0.0,0.0,1.0));
#139=VECTOR('',#138,21.7);
#140=LINE('',#9,#139);
#141=EDGE_CURVE('',#17,#21,#140,.T.);
#142=ORIENTED_EDGE('',*,*,#141,.T.);
#143=DIRECTION('',(0.0,1.0,0.0));
#144=VECTOR('',#143,3.0);
#145=LINE('',#13,#144);
#146=EDGE_CURVE('',#21,#24,#145,.T.);
#147=ORIENTED_EDGE('',*,*,#146,.T.);
#148=DIRECTION('',(0.0,0.0,-1.0));
#149=VECTOR('',#148,21.7);
#150=LINE('',#16,#149);
#151=EDGE_CURVE('',#24,#20,#150,.T.);
#152=ORIENTED_EDGE('',*,*,#151,.T.);
#153=EDGE_LOOP('',(#137,#142,#147,#152));
#154=FACE_OUTER_BOUND('',#153,.T.);
#155=DIRECTION('',(-1.0,0.0,0.0));
#156=DIRECTION('',(0.0,-1.0,0.0));
#157=AXIS2_PLACEMENT_3D('',#12,#155,#156);
#158=PLANE('',#157);
#159=ADVANCED_FACE('',(#154),#158,.T.);
#160=DIRECTION('',(1.0,0.0,0.0));
#161=VECTOR('',#160,11.700000000000001);
#162=LINE('',#13,#161);
#163=EDGE_CURVE('',#21,#22,#162,.T.);
#164=ORIENTED_EDGE('',*,*,#163,.T.);
#165=DIRECTION('',(0.0,1.0,0.0));
#166=VECTOR('',#165,3.0);
#167=LINE('',#14,#166);
#168=EDGE_CURVE('',#22,#23,#167,.T.);
#169=ORIENTED_EDGE('',*,*,#168,.T.);
#170=DIRECTION('',(-1.0,0.0,0.0));
#171=VECTOR('',#170,11.700000000000001);
#172=LINE('',#15,#171);
#173=EDGE_CURVE('',#23,#24,#172,.T.);
#174=ORIENTED_EDGE('',*,*,#173,.T.);
#175=DIRECTION('',(0.0,-1.0,0.0));
#176=VECTOR('',#175,3.0);
#177=LINE('',#16,#176);
#178=EDGE_CURVE('',#24,#21,#177,.T.);
#179=ORIENTED_EDGE('',*,*,#178,.T.);
#180=EDGE_LOOP('',(#164,#169,#174,#179));
#181=FACE_OUTER_BOUND('',#180,.T.);
#182=DIRECTION('',(0.0,0.0,1.0));
#183=DIRECTION('',(1.0,0.0,0.0));
#184=AXIS2_PLACEMENT_3D('',#13,#182,#183);
#185=PLANE('',#184);
#186=ADVANCED_FACE('',(#181),#185,.T.);
#187=CLOSED_SHELL('',(#51,#78,#105,#132,#159,#186));
#188=MANIFOLD_SOLID_BREP('PPTC MAXIMUM BODY ENVELOPE',#187);
#189=(LENGTH_UNIT() NAMED_UNIT(*) SI_UNIT(.MILLI.,.METRE.));
#190=(NAMED_UNIT(*) PLANE_ANGLE_UNIT() SI_UNIT($,.RADIAN.));
#191=(NAMED_UNIT(*) SI_UNIT($,.STERADIAN.) SOLID_ANGLE_UNIT());
#192=UNCERTAINTY_MEASURE_WITH_UNIT(LENGTH_MEASURE(0.001),#189,'distance_accuracy_value','');
#193=(GEOMETRIC_REPRESENTATION_CONTEXT(3) GLOBAL_UNCERTAINTY_ASSIGNED_CONTEXT((#192)) GLOBAL_UNIT_ASSIGNED_CONTEXT((#189,#190,#191)) REPRESENTATION_CONTEXT('',''));
#194=ADVANCED_BREP_SHAPE_REPRESENTATION('Envelope only',(#188),#193);
#195=SHAPE_DEFINITION_REPRESENTATION(#8,#194);
ENDSEC;
END-ISO-10303-21;
